<?xml version="1.0" encoding="UTF-8"?>
<svg width="38px" height="38px" viewBox="0 0 38 38" version="1.1" xmlns="http://www.w3.org/2000/svg" xmlns:xlink="http://www.w3.org/1999/xlink">
    <title>Shape</title>
    <g id="Welcome" stroke="none" stroke-width="1" fill="none" fill-rule="evenodd">
        <g id="Homepage-Live-Race" transform="translate(-1363.000000, -26.000000)" fill="#000000" fill-rule="nonzero">
            <g id="Header-Banner" transform="translate(54.000000, 5.000000)">
                <g id="account-icon" transform="translate(1309.000000, 21.000000)">
                    <path d="M19,0 C8.523875,0 0,8.523875 0,19 C0,24.6137083 2.44941667,29.6653333 6.33333333,33.1462917 L6.33333333,33.15975 L6.60883333,33.39725 C6.657125,33.4392083 6.71016667,33.4740417 6.75925,33.5152083 C7.10045833,33.803375 7.45195833,34.0796667 7.81295833,34.3440833 C7.91033333,34.4153333 8.00770833,34.4842083 8.10666667,34.5530833 C8.48983333,34.82225 8.88170833,35.07875 9.283875,35.3194167 C9.35116667,35.3597917 9.42004167,35.3977917 9.48733333,35.4365833 C9.92829167,35.6930833 10.37875,35.9345417 10.8410833,36.1554167 C10.8458333,36.1577917 10.8505833,36.159375 10.8553333,36.16175 C11.844125,36.6327917 12.8812083,37.0183333 13.9547083,37.3144167 C13.9745,37.3199583 13.9942917,37.3262917 14.0140833,37.3310417 C14.5215417,37.4695833 15.0377083,37.5859583 15.561,37.68175 C15.6100833,37.6904583 15.658375,37.6991667 15.7074583,37.707875 C16.2125417,37.7965417 16.7239583,37.867 17.2425,37.9152917 C17.301875,37.9208333 17.36125,37.924 17.4198333,37.92875 C17.9415417,37.9722917 18.4672083,38 19,38 C19.5327917,38 20.0584583,37.9722917 20.5801667,37.92875 C20.6395417,37.924 20.6989167,37.9208333 20.7575,37.9152917 C21.2760417,37.8677917 21.7874583,37.7965417 22.2925417,37.707875 C22.341625,37.6991667 22.3899167,37.6904583 22.439,37.68175 C22.9622917,37.5859583 23.4784583,37.4695833 23.9859167,37.3310417 C24.0057083,37.3255 24.0255,37.3199583 24.0452917,37.3144167 C25.1187917,37.0183333 26.155875,36.6327917 27.1446667,36.16175 C27.1494167,36.159375 27.1541667,36.1577917 27.1589167,36.1554167 C27.62125,35.9345417 28.0717083,35.6922917 28.5126667,35.4365833 C28.58075,35.397 28.6488333,35.3597917 28.716125,35.3194167 C29.1190833,35.07875 29.5109583,34.8214583 29.8933333,34.5530833 C29.9915,34.4842083 30.0896667,34.4153333 30.1870417,34.3440833 C30.5480417,34.0796667 30.8995417,33.803375 31.24075,33.5152083 C31.2898333,33.4740417 31.342875,33.4392083 31.3911667,33.39725 L31.6666667,33.15975 L31.6666667,33.1462917 C35.5505833,29.6645417 38,24.6137083 38,19 C38,8.523875 29.476125,0 19,0 Z M19,19 C15.5079583,19 12.6666667,16.1587083 12.6666667,12.6666667 C12.6666667,9.174625 15.5079583,6.33333333 19,6.33333333 C22.4920417,6.33333333 25.3333333,9.174625 25.3333333,12.6666667 C25.3333333,16.1587083 22.4920417,19 19,19 Z M21.375,20.5833333 C26.1764583,20.5833333 30.0833333,24.4902083 30.0833333,29.2916667 L30.0833333,32.4250833 C30.0500833,32.4527917 30.01525,32.478125 29.982,32.5058333 C29.6692917,32.7599583 29.3486667,33.0014167 29.0209167,33.2325833 C28.9480833,33.2840417 28.8768333,33.3370833 28.804,33.3869583 C28.450125,33.6284167 28.08675,33.8548333 27.7170417,34.069375 C27.64975,34.1089583 27.5816667,34.14775 27.5135833,34.1865417 C27.1256667,34.40425 26.730625,34.6085 26.3276667,34.7953333 C26.2857083,34.815125 26.2429583,34.834125 26.2002083,34.853125 C24.88525,35.4508333 23.4998333,35.883875 22.0740417,36.140375 C22.0289167,36.1482917 21.9837917,36.157 21.9386667,36.1649167 C21.4897917,36.2417083 21.0369583,36.3010833 20.5809583,36.3430417 C20.5184167,36.3485833 20.4550833,36.3525417 20.39175,36.3572917 C19.9302083,36.3929167 19.4662917,36.4166667 19,36.4166667 C18.5337083,36.4166667 18.0697917,36.3929167 17.60825,36.3557083 C17.5457083,36.3509583 17.482375,36.347 17.4190417,36.3414583 C16.9630417,36.2995 16.5102083,36.2409167 16.0613333,36.1633333 C16.0162083,36.1554167 15.9710833,36.1475 15.9259583,36.1387917 C14.5001667,35.8822917 13.11475,35.44925 11.7997917,34.8515417 C11.7570417,34.83175 11.7142917,34.8135417 11.6723333,34.79375 C11.269375,34.6069167 10.8743333,34.4026667 10.4864167,34.1849583 C10.4183333,34.1461667 10.3510417,34.107375 10.2829583,34.0677917 C9.91325,33.8540417 9.549875,33.6268333 9.196,33.385375 C9.122375,33.3355 9.051125,33.2824583 8.97908333,33.231 C8.65133333,32.9998333 8.33070833,32.7591667 8.018,32.50425 C7.98475,32.4773333 7.94991667,32.4512083 7.91666667,32.4235 L7.91666667,29.2916667 C7.91666667,24.4902083 11.8235417,20.5833333 16.625,20.5833333 L21.375,20.5833333 Z M31.6666667,30.9351667 L31.6666667,29.2916667 C31.6666667,24.327125 28.1326667,20.1724583 23.4491667,19.2097917 C25.5399583,17.784 26.9166667,15.382875 26.9166667,12.6666667 C26.9166667,8.30141667 23.36525,4.75 19,4.75 C14.63475,4.75 11.0833333,8.30141667 11.0833333,12.6666667 C11.0833333,15.382875 12.4600417,17.784 14.5508333,19.2097917 C9.86733333,20.1724583 6.33333333,24.327125 6.33333333,29.2916667 L6.33333333,30.9351667 C3.3915,27.8152083 1.58333333,23.6162083 1.58333333,19 C1.58333333,9.39629167 9.39629167,1.58333333 19,1.58333333 C28.6037083,1.58333333 36.4166667,9.39629167 36.4166667,19 C36.4166667,23.6162083 34.6085,27.8152083 31.6666667,30.9351667 Z" id="Shape"></path>
                </g>
            </g>
        </g>
    </g>
</svg>