<?xml version="1.0" encoding="UTF-8"?>
<svg width="125px" height="72px" viewBox="0 0 125 72" version="1.1" xmlns="http://www.w3.org/2000/svg" xmlns:xlink="http://www.w3.org/1999/xlink">
    <title>apidura</title>
    <g id="Symbols" stroke="none" stroke-width="1" fill="none" fill-rule="evenodd">
        <g id="Footer" transform="translate(-380.000000, -108.000000)" fill="#54585A" fill-rule="nonzero">
            <g id="Supported-By" transform="translate(7.000000, 0.000000)">
                <g id="apidura" transform="translate(373.000000, 108.000000)">
                    <g id="Group" transform="translate(0.000000, 58.000000)">
                        <path d="M8.96551724,0.741176471 L12.3275862,0.741176471 L19.9137931,13.5882353 L15.3448276,13.5882353 L13.9655172,10.9529412 L5.86206897,10.9529412 L4.56896552,13.5882353 L0,13.5882353 L6.89655172,1.64705882 C7.24137931,1.07058824 7.93103448,0.741176471 8.96551724,0.741176471 M9.9137931,3.37647059 L6.98275862,8.81176471 L12.8448276,8.81176471 L9.9137931,3.37647059 Z" id="Shape"></path>
                        <path d="M26.2068966,9.05882353 L26.2068966,13.6705882 L21.8965517,13.6705882 L21.8965517,2.14117647 C21.8965517,1.72941176 22.1551724,1.48235294 22.5,1.15294118 C22.9310345,0.905882353 23.4482759,0.741176471 24.0517241,0.741176471 L31.1206897,0.741176471 C33.362069,0.741176471 35,1.07058824 36.1206897,1.81176471 C37.2413793,2.47058824 37.8448276,3.54117647 37.8448276,4.94117647 C37.8448276,6.25882353 37.3275862,7.24705882 36.2068966,7.98823529 C35.0862069,8.64705882 33.5344828,9.05882353 31.4655172,9.05882353 L26.2068966,9.05882353 L26.2068966,9.05882353 Z M26.2068966,6.75294118 L30.4310345,6.75294118 C31.5517241,6.75294118 32.4137931,6.58823529 32.8448276,6.34117647 C33.362069,6.09411765 33.6206897,5.6 33.6206897,4.94117647 C33.6206897,4.36470588 33.362069,3.87058824 32.9310345,3.54117647 C32.3275862,3.21176471 31.637931,3.12941176 30.6896552,3.12941176 L26.2931034,3.12941176 L26.2068966,6.75294118 L26.2068966,6.75294118 Z" id="Shape"></path>
                        <path d="M39.6551724,13.5882353 L39.6551724,2.05882353 C39.6551724,1.64705882 39.8275862,1.4 40.2586207,1.07058824 C40.6896552,0.823529412 41.2068966,0.658823529 41.8103448,0.658823529 L43.9655172,0.658823529 L43.9655172,13.5058824 L39.6551724,13.5058824 L39.6551724,13.5882353 Z" id="Path"></path>
                        <path d="M46.637931,13.5882353 L46.637931,2.05882353 C46.637931,1.64705882 46.8103448,1.4 47.2413793,1.07058824 C47.6724138,0.823529412 48.1896552,0.658823529 48.7931034,0.658823529 L54.8275862,0.658823529 C58.0172414,0.658823529 60.4310345,1.15294118 61.9827586,2.22352941 C63.5344828,3.29411765 64.3103448,4.94117647 64.3103448,7.08235294 C64.3103448,8.23529412 64.0517241,9.22352941 63.4482759,10.2117647 C62.7586207,11.2 61.9827586,11.8588235 60.862069,12.3529412 C60,12.7647059 59.0517241,13.0941176 58.0172414,13.2588235 C57.0689655,13.4235294 55.6034483,13.5058824 53.6206897,13.5058824 L46.637931,13.5058824 L46.637931,13.5882353 Z M50.862069,11.2823529 L54.3103448,11.2823529 C56.2931034,11.2823529 57.7586207,10.9529412 58.7068966,10.2941176 C59.5689655,9.71764706 60,8.64705882 60,7.16470588 C60,5.68235294 59.5689655,4.69411765 58.7068966,3.95294118 C57.9310345,3.29411765 56.637931,2.96470588 54.8275862,2.96470588 L50.862069,2.96470588 L50.862069,11.2823529 L50.862069,11.2823529 Z" id="Shape"></path>
                        <path d="M71.0344828,0.741176471 L71.0344828,8.72941176 C71.0344828,9.71764706 71.2931034,10.4588235 71.9827586,10.9529412 C72.5862069,11.3647059 73.6206897,11.6117647 75.0862069,11.6117647 C76.4655172,11.6117647 77.5,11.3647059 78.1896552,10.9529412 C78.8793103,10.5411765 79.137931,9.8 79.137931,8.72941176 L79.137931,0.741176471 L83.4482759,0.741176471 L83.4482759,9.05882353 C83.4482759,10.6235294 82.7586207,11.8588235 81.2931034,12.6823529 C80,13.5058824 77.9310345,13.9176471 75.0862069,13.9176471 C72.3275862,13.9176471 70.2586207,13.5058824 68.8793103,12.6823529 C67.4137931,11.8588235 66.7241379,10.6235294 66.7241379,9.05882353 L66.7241379,2.14117647 C66.7241379,1.72941176 66.8965517,1.4 67.3275862,1.15294118 C67.7586207,0.905882353 68.2758621,0.741176471 68.8793103,0.741176471 L71.0344828,0.741176471 L71.0344828,0.741176471 Z" id="Path"></path>
                        <path d="M85.6896552,13.5882353 L85.6896552,2.05882353 C85.6896552,1.64705882 85.862069,1.4 86.2931034,1.07058824 C86.7241379,0.823529412 87.2413793,0.658823529 87.8448276,0.658823529 L95.7758621,0.658823529 C98.0172414,0.658823529 99.7413793,0.988235294 100.775862,1.56470588 C101.896552,2.22352941 102.5,3.12941176 102.5,4.28235294 C102.5,5.10588235 102.241379,5.76470588 101.637931,6.25882353 C101.12069,6.75294118 100.344828,7.08235294 99.3103448,7.32941176 C100.258621,7.49411765 100.862069,7.82352941 101.293103,8.23529412 C101.637931,8.64705882 101.896552,9.22352941 101.982759,10.1294118 L102.068966,11.6941176 L102.068966,12.1882353 C102.068966,12.3529412 102.068966,12.5176471 102.155172,12.6823529 C102.241379,13.0941176 102.5,13.4235294 102.844828,13.5058824 L98.1034483,13.5058824 C97.9310345,13.2588235 97.7586207,13.0117647 97.7586207,12.6823529 C97.6724138,12.2705882 97.6724138,12.0235294 97.6724138,11.8588235 L97.5862069,10.4588235 C97.5,9.71764706 97.2413793,9.14117647 96.8965517,8.89411765 C96.4655172,8.64705882 95.6896552,8.48235294 94.5689655,8.48235294 L90,8.48235294 L90,13.5058824 L85.6896552,13.5882353 L85.6896552,13.5882353 Z M90,6.34117647 L95,6.34117647 C96.1206897,6.34117647 96.8965517,6.17647059 97.4137931,5.92941176 C97.9310345,5.68235294 98.1896552,5.27058824 98.1896552,4.69411765 C98.1896552,4.11764706 97.9310345,3.70588235 97.4137931,3.45882353 C96.8965517,3.12941176 96.2068966,3.04705882 95.2586207,3.04705882 L90,3.04705882 L90,6.34117647 Z" id="Shape"></path>
                        <path d="M113.275862,0.741176471 L116.637931,0.741176471 L124.224138,13.5882353 L119.655172,13.5882353 L118.275862,10.9529412 L110.172414,10.9529412 L108.87931,13.5882353 L104.310345,13.5882353 L111.206897,1.64705882 C111.551724,1.07058824 112.241379,0.741176471 113.275862,0.741176471 M114.224138,3.37647059 L111.293103,8.81176471 L117.155172,8.81176471 L114.224138,3.37647059 Z" id="Shape"></path>
                    </g>
                    <path d="M69.8434686,27.9693487 C69.8434686,27.9693487 69.7556537,27.3524904 69.6678388,27 C69.6678388,27.0881226 69.4043942,27.7049808 69.4043942,27.7049808 C68.174986,31.0536398 66.0674292,34.7547893 62.5548344,38.7203065 L62.5548344,38.7203065 L61.5010559,39.8659004 L60.5350924,38.8084291 C57.0224976,34.8429119 54.8271258,31.0536398 53.5977177,27.7049808 C53.5977177,27.6168582 53.3342731,27 53.3342731,27 C53.2464582,27.3524904 53.1586433,27.9693487 53.1586433,27.9693487 C52.8951987,29.7318008 51.9292351,39.1609195 61.3254262,49.8237548 L61.3254262,49.8237548 L61.4132411,50 C61.4132411,50 61.4132411,50 61.4132411,50 C61.4132411,50 61.4132411,50 61.4132411,50 L61.5010559,49.8237548 L61.5010559,49.8237548 C71.0728767,39.1609195 70.1069132,29.8199234 69.8434686,27.9693487 Z" id="Path"></path>
                    <path d="M95.0033898,8.55932203 C97.7355932,4.57627119 98,0.847457627 98,0 C97.9118644,0 97.9118644,0 97.8237288,0 C95.7084746,0 84.3389831,0.93220339 72,20 L72.440678,19.9152542 C79.8440678,18.8983051 89.8033898,16.1864407 95.0033898,8.55932203 Z" id="Path"></path>
                    <path d="M76.0233463,23 C74.0544747,23 72.5992218,23.076087 72,23.1521739 L72.0856031,23.3043478 C76.7081712,27.7173913 81.844358,30 87.2373541,30 C90.7470817,30 93.3151751,29.0108696 94,28.6304348 C90.4046693,23.7608696 81.2451362,23 76.0233463,23 Z" id="Path"></path>
                    <path d="M27,0 C27,0.93220339 27.3525424,4.66101695 29.9966102,8.6440678 C32.9050847,12.8813559 39.0745763,18.220339 52.559322,19.9152542 L53,20 C40.6610169,1.01694915 29.379661,0 27.1762712,0 C27.0881356,0 27.0881356,0 27,0 Z" id="Path"></path>
                    <path d="M30,28.618867 C30.6875,28.9257854 33.265625,30 36.7890625,30 C42.203125,30 47.2734375,27.6981116 51.9140625,23.2477941 L52,23.1710645 C51.3984375,23.0943349 49.9375,23.0176053 47.9609375,23.0176053 C42.8046875,22.8641461 33.609375,23.6314422 30,28.618867 Z" id="Path"></path>
                    <path d="M61.4,11.0425532 C63.3,11.0425532 65.1,11.4255319 66.9,12 C67,11.5212766 67,11.1382979 67,10.6595745 C67,6.44680851 64.5,3 61.5,3 C58.5,3 56,6.44680851 56,10.6595745 C56,11.0425532 56,11.4255319 56.1,11.9042553 C57.7,11.4255319 59.5,11.0425532 61.4,11.0425532 Z" id="Path"></path>
                    <path d="M61.6283199,37 C71.1416879,26.9515571 70.0943446,18.0657439 69.8325088,16.4048443 L69.8325088,16.2387543 C67.126872,14.0795848 64.3339567,13 61.3664841,13 C56.9152752,13 53.5986882,15.5743945 53.1622952,15.9065744 C52.987738,17.0692042 51.5912803,26.4532872 61.6283199,36.916955 L61.6283199,37 Z" id="Path"></path>
                </g>
            </g>
        </g>
    </g>
</svg>