<?xml version="1.0" encoding="UTF-8"?>
<svg width="15px" height="15px" viewBox="0 0 15 15" version="1.1" xmlns="http://www.w3.org/2000/svg" xmlns:xlink="http://www.w3.org/1999/xlink">
    <title>Shape</title>
    <g id="Symbols" stroke="none" stroke-width="1" fill="none" fill-rule="evenodd">
        <g id="Footer" transform="translate(-762.000000, -359.000000)" fill="#000000" fill-rule="nonzero">
            <g id="Social" transform="translate(5.000000, 310.000000)">
                <g id="instagram" transform="translate(757.000000, 49.000000)">
                    <path d="M7.5,1.35140625 C9.50255859,1.35140625 9.73974609,1.35902344 10.5305859,1.39505859 C11.2618359,1.42845703 11.6589844,1.550625 11.9233008,1.65333984 C12.2733398,1.78939453 12.5231836,1.95193359 12.785625,2.214375 C13.048125,2.47681641 13.2106055,2.72666016 13.3466602,3.07669922 C13.449375,3.34101563 13.571543,3.73816406 13.6049414,4.46935547 C13.6409766,5.26025391 13.6485937,5.49744141 13.6485937,7.5 C13.6485937,9.50261719 13.6409766,9.73980469 13.6049414,10.5306445 C13.571543,11.2618945 13.449375,11.6589844 13.3466602,11.9233008 C13.2106055,12.2733398 13.0480664,12.5232422 12.785625,12.7856836 C12.5231836,13.048125 12.2733398,13.2106641 11.9233008,13.3466602 C11.6589844,13.449375 11.2618359,13.5716016 10.5305859,13.6049414 C9.73986328,13.6410352 9.50267578,13.6486523 7.5,13.6486523 C5.49726562,13.6486523 5.26007812,13.6410352 4.46935547,13.6049414 C3.73810547,13.571543 3.34101562,13.449375 3.07669922,13.3466602 C2.72666016,13.2106641 2.47675781,13.048125 2.21431641,12.7856836 C1.951875,12.5231836 1.78933594,12.2733398 1.65333984,11.9233008 C1.550625,11.659043 1.42839844,11.2618945 1.39505859,10.5306445 C1.35896484,9.73980469 1.35134766,9.50261719 1.35134766,7.5 C1.35134766,5.49744141 1.35896484,5.26025391 1.39505859,4.46941406 C1.42845703,3.73816406 1.550625,3.34101562 1.65333984,3.07669922 C1.78933594,2.72666016 1.951875,2.47681641 2.21431641,2.214375 C2.47681641,1.951875 2.72666016,1.78939453 3.07669922,1.65333984 C3.34095703,1.550625 3.73810547,1.42845703 4.46935547,1.39505859 C5.26019531,1.35902344 5.49738281,1.35140625 7.5,1.35140625 M7.5,0 C5.46310547,0 5.20769531,0.00861328125 4.40777344,0.0451171875 C3.60943359,0.0815625 3.06421875,0.208359375 2.58720703,0.39375 C2.09396484,0.585410156 1.67572266,0.841875 1.25876953,1.25882813 C0.841816406,1.67578125 0.585410156,2.09402344 0.39375,2.58720703 C0.208300781,3.06427734 0.0815625,3.60949219 0.0451171875,4.40777344 C0.00861328125,5.20769531 0,5.46310547 0,7.5 C0,9.53689453 0.00861328125,9.79230469 0.0451171875,10.5922266 C0.0815625,11.3905664 0.208300781,11.9357812 0.39375,12.412793 C0.585351562,12.9059766 0.841816406,13.3242773 1.25876953,13.7412305 C1.67572266,14.1581836 2.09396484,14.4145898 2.58720703,14.60625 C3.06427734,14.7916992 3.60943359,14.9184375 4.40771484,14.9548828 C5.20769531,14.9913867 5.46310547,15 7.5,15 C9.53689453,15 9.79230469,14.9913867 10.5922266,14.9548828 C11.3905078,14.9184375 11.9357227,14.7916992 12.4127344,14.60625 C12.9059766,14.4146484 13.3242188,14.1581836 13.7411719,13.7412305 C14.158125,13.3242773 14.4145898,12.9060352 14.60625,12.412793 C14.7916406,11.9357227 14.9184375,11.3905664 14.9548828,10.5922852 C14.9913867,9.79230469 15,9.53689453 15,7.5 C15,5.46310547 14.9913867,5.20769531 14.9548828,4.40777344 C14.9184375,3.60949219 14.7916406,3.06427734 14.60625,2.58726563 C14.4145898,2.09402344 14.158125,1.67578125 13.7411719,1.25882812 C13.3242188,0.841875 12.9059766,0.585351562 12.412793,0.39375 C11.9357227,0.208359375 11.3905078,0.0815625 10.5922266,0.0451171875 C9.79230469,0.00861328125 9.53689453,0 7.5,0 Z M7.5,3.64863281 C5.37292969,3.64863281 3.64863281,5.37304688 3.64863281,7.5 C3.64863281,9.62707031 5.37292969,11.3513672 7.5,11.3513672 C9.62701172,11.3513672 11.3513672,9.62707031 11.3513672,7.5 C11.3513672,5.37298828 9.62701172,3.64863281 7.5,3.64863281 Z M7.5,10.0000195 C6.11929687,10.0000195 4.99998047,8.88070313 4.99998047,7.5 C4.99998047,6.11929687 6.11929687,4.99998047 7.5,4.99998047 C8.88070313,4.99998047 10.0000195,6.11929687 10.0000195,7.5 C10.0000195,8.88070313 8.88070313,10.0000195 7.5,10.0000195 Z M12.4034766,3.49646484 C12.4034766,3.99357422 12.0005859,4.39646484 11.5034766,4.39646484 C11.0064258,4.39646484 10.6034766,3.99357422 10.6034766,3.49646484 C10.6034766,2.99941406 11.0064258,2.59646484 11.5034766,2.59646484 C12.0005859,2.59646484 12.4034766,2.99941406 12.4034766,3.49646484 L12.4034766,3.49646484 Z" id="Shape"></path>
                </g>
            </g>
        </g>
    </g>
</svg>