<?xml version="1.0" encoding="UTF-8"?>
<svg width="56px" height="96px" viewBox="0 0 56 96" version="1.1" xmlns="http://www.w3.org/2000/svg" xmlns:xlink="http://www.w3.org/1999/xlink">
    <title>icon / logo-minimal</title>
    <g id="Welcome" stroke="none" stroke-width="1" fill="none" fill-rule="evenodd">
        <g id="Hompage-Modal" transform="translate(-704.000000, -441.000000)" fill="#000000">
            <g id="Content" transform="translate(147.500000, 380.000000)">
                <g id="logo-minimal" transform="translate(557.000000, 60.000000)">
                    <path d="M20.5413333,14.5663784 L32.7546667,35.8540541 L39.2346667,24.5493243 L50.992,45.036973 C53.344,38.4280541 54.912,32.6566216 54.912,29.0310811 C54.912,13.8733784 42.6533333,1.53048649 27.592,1.53048649 C12.5306667,1.53048649 0.266666667,13.8707027 0.266666667,29.0310811 C0.266666667,32.4238378 1.664,37.7216757 3.768,43.8061622 L20.5413333,14.5663784 Z" id="Path"></path>
                    <path d="M39.24,32.9375676 L35.1573333,40.0521892 L45.7066667,58.4421081 C46.896,55.638 48.0426667,52.8419189 49.096,50.1261081 L39.24,32.9375676 L39.24,32.9375676 Z M23.0026667,27.2464054 L18.0693333,35.8540541 L15.6026667,31.5595946 L5.632,48.9381081 C12.8346667,67.8551351 24.8213333,91.2887027 25.5253333,92.672027 L27.5893333,96.6454054 L29.6106667,92.672027 C30.1706667,91.6285135 37.1466667,77.9852432 43.6373333,63.2262162 L23.0026667,27.2464054 Z" id="Shape"></path>
                </g>
            </g>
        </g>
    </g>
</svg>