<?xml version="1.0" encoding="UTF-8"?>
<svg width="15px" height="14px" viewBox="0 0 15 14" version="1.1" xmlns="http://www.w3.org/2000/svg" xmlns:xlink="http://www.w3.org/1999/xlink">
    <title>Path</title>
    <g id="Symbols" stroke="none" stroke-width="1" fill="none" fill-rule="evenodd">
        <g id="Footer" transform="translate(-671.000000, -360.000000)" fill="#000000" fill-rule="nonzero">
            <g id="Social" transform="translate(5.000000, 310.000000)">
                <g id="twitter" transform="translate(666.000000, 50.000000)">
                    <path d="M0.9375,0.733559254 C2.8125,2.62742535 4.6875,4.52129145 7.03125,4.04782493 C6.86083889,3.12667639 7.15113675,2.17990089 7.80716019,1.51727659 C8.46318363,0.854652296 9.40052765,0.561433485 10.3125,0.733559254 C11.0349601,0.793351087 11.706667,1.13258387 12.1875,1.6804923 C13.0536145,1.64790613 13.8818142,1.31329293 14.53125,0.733559254 C14.2748685,1.50039225 13.7820395,2.16410934 13.125,2.62742535 C13.7802208,2.63778774 14.4266918,2.47454381 15,2.15395883 C14.6242013,2.99482349 13.9574882,3.66824497 13.125,4.04782493 C13.2539695,6.38896317 12.422289,8.68035029 10.8257572,10.3825348 C9.2292255,12.0847194 7.00889912,13.0473103 4.6875,13.0437218 C3.02038551,13.0483683 1.38926101,12.5541073 0,11.6232893 C1.38019351,11.6305574 2.71485955,11.1250216 3.75,10.2028897 C2.74178895,9.92869929 1.89240273,9.24235314 1.40625,8.30902365 C1.88567454,8.32166608 2.36304971,8.241303 2.8125,8.07229039 C1.19756704,7.65197713 0.0514793284,6.20495269 0,4.52129145 C0.432891478,4.77205071 0.910980054,4.93301706 1.40625,4.99475798 C0.392563448,3.80896288 0.206241004,2.11518803 0.9375,0.733559254" id="Path"></path>
                </g>
            </g>
        </g>
    </g>
</svg>