<?xml version="1.0" encoding="UTF-8"?>
<svg width="208px" height="41px" viewBox="0 0 208 41" version="1.1" xmlns="http://www.w3.org/2000/svg" xmlns:xlink="http://www.w3.org/1999/xlink">
    <title>Logo</title>
    <g id="Welcome" stroke="none" stroke-width="1" fill="none" fill-rule="evenodd">
        <g id="Homepage-Live-Race" transform="translate(-619.000000, -29.000000)" fill="#111111" fill-rule="nonzero">
            <g id="Header-Banner" transform="translate(54.000000, 5.000000)">
                <g id="Logo" transform="translate(565.000000, 24.368020)">
                    <path d="M48.3732263,23.13475 C48.2544252,21.9655744 47.8768077,21.019099 47.2361309,20.3038891 C46.2220794,19.1903885 44.8388962,18.637921 43.0696097,18.637921 L38.5594141,18.637921 L38.5594141,36.6338023 L43.0696097,36.6338023 C44.8388962,36.6338023 46.2220794,36.0727694 47.2361309,34.9678342 C47.8768077,34.2483416 48.2544252,33.2419084 48.3732263,31.9613829 C48.4835415,30.6765746 48.5471849,29.1733489 48.5471849,27.4602712 C48.5471849,25.7429108 48.4835415,24.3039255 48.3732263,23.13475 M52.2427449,30.2011955 C52.2342591,31.1305402 52.1578871,32.0341887 52.0178716,32.912141 C51.8863419,33.794376 51.644497,34.6423495 51.2965797,35.4517787 C50.9529054,36.2612079 50.4480011,37.002114 49.7818668,37.6787797 C49.0011745,38.4625128 48.0719808,39.0492419 46.9942859,39.4304017 C45.9123482,39.8158441 44.7328238,40 43.4472272,40 L34.8426396,40 L34.8426396,15.2631579 L43.4472272,15.2631579 C44.7328238,15.2631579 45.9123482,15.4558791 46.9942859,15.8370389 C48.0719808,16.2181987 49.0011745,16.8049278 49.7818668,17.5929436 C50.4480011,18.2653266 50.9529054,18.9891019 51.2965797,19.7642696 C51.644497,20.5437199 51.8863419,21.3488665 52.0178716,22.1968399 C52.1578871,23.0448134 52.2342591,23.9056349 52.2427449,24.7835873 C52.2554736,25.6658223 52.2639594,26.5566227 52.2639594,27.4602712 C52.2639594,28.3639197 52.2554736,29.2804162 52.2427449,30.2011955" id="Fill-1"></path>
                    <path d="M66.4795418,32.1744736 L66.4795418,27.9673399 C66.4795418,26.3085518 66.2063474,25.1052858 65.6512859,24.3661367 C65.1005607,23.6183928 64.2549592,23.2445208 63.1144811,23.2445208 C61.9132933,23.2445208 61.050346,23.609798 60.521303,24.336055 C59.9879235,25.062312 59.723402,26.2741728 59.723402,27.9673399 L59.723402,32.1744736 C59.723402,33.7773958 59.9879235,34.9333906 60.521303,35.6381607 C61.050346,36.3472282 61.9132933,36.6953159 63.1144811,36.6953159 C64.2549592,36.6953159 65.1005607,36.3343361 65.6512859,35.6123765 C66.2063474,34.8818221 66.4795418,33.7387194 66.4795418,32.1744736 L66.4795418,32.1744736 Z M55.9593909,27.7696605 C55.9593909,22.5913193 58.344421,20 63.1144811,20 C65.300036,20 67.0302669,20.6059304 68.3008375,21.8220885 C69.5757445,23.0339493 70.213198,25.0193382 70.213198,27.7696605 L70.213198,32.2346369 C70.213198,34.9806618 69.5627352,36.9660507 68.2618097,38.1779115 C66.9565478,39.3940696 65.2089712,40 63.0017343,40 C58.3053932,40 55.9593909,37.4129781 55.9593909,32.2346369 L55.9593909,27.7696605 Z" id="Fill-3"></path>
                    <polygon id="Fill-5" points="79.4718515 23.7454613 79.4718515 40 75.7319567 40 75.7319567 23.7454613 70.7411168 23.7454613 70.7411168 20.5263158 84.4670051 20.5263158 84.4670051 23.7454613"></polygon>
                    <polygon id="Fill-7" points="108.081714 40 104.8069 40 99.7594817 22.6636536 94.7463992 40 91.471586 40 84.9949239 15.2631579 88.9650448 15.2631579 93.2828195 32.9506852 98.2615658 15.2631579 101.291734 15.2631579 106.27048 32.9506852 110.588255 15.2631579 114.558376 15.2631579"></polygon>
                    <path d="M121.386949,25.6652047 L119.045417,33.1481481 L123.762852,33.1481481 L121.386949,25.6652047 Z M118.061544,36.2177434 L116.871444,40 L112.974619,40 L119.891805,20.5263158 L122.912167,20.5263158 L129.86802,40 L125.941121,40 L124.751021,36.2177434 L118.061544,36.2177434 Z" id="Fill-9"></path>
                    <polygon id="Fill-11" points="138.598755 23.7454613 138.598755 40 134.85886 40 134.85886 23.7454613 129.86802 23.7454613 129.86802 20.5263158 143.593909 20.5263158 143.593909 23.7454613"></polygon>
                    <path d="M144.649746,27.7679914 C144.649746,22.5907626 147.056458,20 151.865546,20 C154.007737,20 155.724959,20.5671321 156.995529,21.6928034 C158.270436,22.8270677 158.903553,24.4167562 158.903553,26.4704619 L158.903553,26.6638024 L155.169897,26.6638024 L155.169897,26.4962406 C155.169897,25.4994629 154.879357,24.7089151 154.302613,24.1245972 C153.721533,23.5402793 152.897614,23.2481203 151.830855,23.2481203 C150.63834,23.2481203 149.76672,23.6176155 149.229004,24.3523093 C148.686952,25.0827068 148.413757,26.2900107 148.413757,27.9656284 L148.413757,32.1718582 C148.413757,33.7572503 148.695625,34.9044039 149.255022,35.6219119 C149.81442,36.3351235 150.69905,36.6917293 151.891565,36.6917293 C152.953987,36.6917293 153.769234,36.4167562 154.328632,35.8496241 C154.892366,35.2824919 155.169897,34.50913 155.169897,33.5338346 L155.169897,33.3061224 L158.84718,33.3061224 L158.84718,33.5037594 C158.84718,35.5918367 158.222736,37.1944146 156.969511,38.3157895 C155.716286,39.4414608 153.990391,40 151.804836,40 C147.039113,40 144.649746,37.4092374 144.649746,32.2320086 L144.649746,27.7679914 Z" id="Fill-13"></path>
                    <polygon id="Fill-15" points="175.269036 40 171.6122 40 171.6122 31.7614638 165.208487 31.7614638 165.208487 40 161.543147 40 161.543147 20.5263158 165.208487 20.5263158 165.208487 28.5416087 171.6122 28.5416087 171.6122 20.5263158 175.269036 20.5263158"></polygon>
                    <polygon id="Fill-17" points="182.597413 28.5716606 189.859091 28.5716606 189.859091 31.7872227 182.597413 31.7872227 182.597413 36.7844379 191.106599 36.7844379 191.106599 40 178.964467 40 178.964467 20.5263158 191.106599 20.5263158 191.106599 23.7418778 182.597413 23.7418778"></polygon>
                    <path d="M200.858253,29.0224404 C201.714923,29.0224404 202.380751,28.7863176 202.855737,28.3312448 C203.330723,27.8675856 203.568215,27.206442 203.568215,26.3392277 C203.568215,25.5492899 203.326482,24.9181983 202.838773,24.450246 C202.359547,23.9780006 201.693719,23.7418778 200.858253,23.7418778 L197.406126,23.7418778 L197.406126,29.0224404 L200.858253,29.0224404 Z M197.406126,32.0963288 L197.406126,40 L193.746193,40 L193.746193,20.5263158 L201.057577,20.5263158 C202.932074,20.5263158 204.429127,21.0457858 205.544494,22.093312 C206.659862,23.1365451 207.215426,24.5489882 207.215426,26.3392277 C207.215426,27.6185835 206.927042,28.7004548 206.341792,29.5848417 C205.752301,30.4692286 204.912594,31.1174928 203.81419,31.5339274 L208,40 L203.788744,40 L200.133052,32.0963288 L197.406126,32.0963288 Z" id="Fill-19"></path>
                    <path d="M8.62068153,5.51856137 L13.8103318,14.5309192 L16.5689499,9.74471961 L21.5603245,18.4210526 C22.5603236,15.6208458 23.2284264,13.1782039 23.2284264,11.6402442 C23.2284264,5.22561666 18.0172244,0 11.6163684,0 C5.21551233,0 0,5.22561666 0,11.6402442 C0,13.0791197 0.599137367,15.3192851 1.49137791,17.8997834 L8.62068153,5.51856137 Z" id="Fill-21"></path>
                    <path d="M16.4807483,13.1578947 L14.7817259,16.0970336 L19.1772069,23.6842105 C19.6716985,22.5253501 20.1492844,21.3748872 20.5888325,20.2496169 L16.4807483,13.1578947 Z" id="Fill-23"></path>
                    <path d="M9.87805341,11.0526316 L7.8201843,14.6434635 L6.79336255,12.852292 L2.63959391,20.1018676 C5.64399829,27.9923599 10.6344365,37.7674024 10.9302288,38.344652 L11.7880264,40 L12.6331472,38.344652 C12.8655554,37.9074703 15.7727709,32.2156197 18.4771574,26.0611205 L9.87805341,11.0526316 Z" id="Fill-25"></path>
                </g>
            </g>
        </g>
    </g>
</svg>