<svg id="svg" version="1.1" xmlns="http://www.w3.org/2000/svg" xmlns:xlink="http://www.w3.org/1999/xlink" width="160" height="28" viewBox="0, 0, 400,69.25287356321839"><g id="svgg"><path id="path0" d="M25.583 17.167 L 25.083 17.294 25.625 17.314 C 26.405 17.342,26.292 17.604,25.449 17.720 C 25.055 17.774,24.223 18.046,23.600 18.326 C 22.355 18.885,22.266 18.910,22.417 18.667 C 22.473 18.575,22.380 18.500,22.210 18.500 C 22.039 18.500,21.821 18.421,21.725 18.325 C 21.042 17.642,15.269 21.013,12.708 23.589 C 11.357 24.949,10.739 25.915,11.953 24.769 C 12.705 24.060,12.667 24.025,12.517 25.291 C 12.450 25.862,12.457 26.424,12.533 26.540 C 12.608 26.655,12.621 27.050,12.561 27.417 C 12.431 28.211,12.444 31.108,12.578 31.325 C 12.630 31.408,12.595 31.525,12.500 31.583 C 12.405 31.642,12.375 31.767,12.434 31.861 C 12.492 31.955,12.539 33.243,12.538 34.724 C 12.537 36.293,12.607 37.504,12.706 37.625 C 12.823 37.770,12.811 37.833,12.666 37.833 C 12.517 37.833,12.487 38.018,12.560 38.474 C 12.616 38.827,12.614 39.164,12.554 39.224 C 12.494 39.283,12.459 40.064,12.475 40.958 C 12.491 41.852,12.514 43.146,12.525 43.833 C 12.537 44.555,12.455 45.277,12.330 45.541 C 12.144 45.934,12.153 46.042,12.390 46.304 C 12.542 46.472,12.667 46.668,12.667 46.739 C 12.667 46.810,12.892 47.202,13.167 47.609 C 13.675 48.362,13.812 48.776,13.488 48.576 C 13.389 48.515,13.408 48.625,13.529 48.822 C 13.708 49.110,13.761 49.128,13.806 48.913 C 13.883 48.543,14.333 48.927,14.333 49.364 C 14.333 49.541,14.408 49.640,14.500 49.583 C 14.592 49.527,14.667 49.560,14.667 49.657 C 14.667 49.754,14.985 49.832,15.375 49.831 C 15.765 49.829,15.996 49.772,15.888 49.704 C 15.781 49.636,15.639 49.356,15.574 49.082 C 15.508 48.808,15.405 48.508,15.345 48.417 C 15.095 48.035,14.335 45.323,13.850 43.083 C 13.380 40.916,13.239 34.721,13.626 33.250 C 13.675 33.067,13.748 32.518,13.790 32.030 C 13.846 31.367,13.923 31.165,14.094 31.231 C 14.220 31.279,14.368 31.245,14.424 31.155 C 14.479 31.065,14.425 31.012,14.304 31.038 C 14.176 31.064,14.090 30.944,14.099 30.750 C 14.131 30.081,14.381 28.990,14.522 28.903 C 14.602 28.854,14.667 28.631,14.667 28.407 C 14.667 28.183,14.742 28.000,14.833 28.000 C 14.925 28.000,15.000 27.850,15.000 27.667 C 15.000 27.483,15.075 27.333,15.167 27.333 C 15.258 27.333,15.333 27.214,15.333 27.067 C 15.333 26.773,15.845 25.782,16.042 25.694 C 16.110 25.664,16.167 25.533,16.167 25.403 C 16.167 25.273,16.237 25.167,16.322 25.167 C 16.408 25.167,16.523 25.025,16.578 24.851 C 16.633 24.678,16.844 24.485,17.047 24.423 C 17.272 24.355,17.335 24.277,17.208 24.225 C 16.923 24.107,16.947 23.889,17.259 23.770 C 17.434 23.702,17.478 23.737,17.393 23.877 C 17.310 24.015,17.362 24.008,17.550 23.856 C 17.704 23.731,17.793 23.570,17.749 23.499 C 17.705 23.427,17.781 23.325,17.918 23.273 C 18.055 23.220,18.167 23.025,18.167 22.839 C 18.167 22.652,18.260 22.498,18.375 22.495 C 18.653 22.489,19.667 21.557,19.667 21.308 C 19.667 21.200,19.712 21.157,19.768 21.212 C 19.823 21.268,19.955 21.242,20.059 21.155 C 20.749 20.580,21.656 19.934,22.199 19.628 C 22.548 19.432,22.833 19.206,22.833 19.126 C 22.833 19.046,22.903 19.023,22.988 19.076 C 23.074 19.129,23.191 19.096,23.248 19.003 C 23.306 18.910,23.517 18.832,23.718 18.831 C 24.015 18.829,24.037 18.798,23.833 18.667 C 23.638 18.540,23.681 18.505,24.032 18.503 C 24.279 18.501,24.516 18.442,24.559 18.372 C 24.603 18.301,25.246 18.061,25.988 17.837 C 27.666 17.331,27.303 16.729,25.583 17.167 M23.169 17.688 C 21.888 18.032,21.359 18.280,22.250 18.119 C 23.141 17.957,25.093 17.364,24.750 17.358 C 24.567 17.356,23.855 17.504,23.169 17.688 M51.423 19.799 C 51.353 19.869,51.436 20.190,51.669 20.750 C 52.090 21.762,52.628 23.694,53.177 26.167 C 53.407 27.203,53.606 35.000,53.413 35.456 C 53.345 35.618,53.255 36.237,53.213 36.833 C 53.171 37.429,53.069 37.942,52.985 37.972 C 52.902 38.003,52.833 38.280,52.833 38.587 C 52.833 38.895,52.765 39.189,52.682 39.240 C 52.599 39.292,52.568 39.475,52.613 39.648 C 52.659 39.821,52.614 40.013,52.515 40.074 C 52.415 40.136,52.333 40.325,52.333 40.494 C 52.333 40.827,51.663 42.215,51.458 42.306 C 51.390 42.336,51.333 42.467,51.333 42.597 C 51.333 42.727,51.261 42.833,51.172 42.833 C 51.083 42.833,51.054 42.946,51.106 43.083 C 51.175 43.262,51.090 43.334,50.809 43.336 C 50.486 43.338,50.461 43.370,50.667 43.515 C 50.855 43.648,50.865 43.713,50.708 43.777 C 50.594 43.823,50.500 43.935,50.500 44.026 C 50.500 44.336,50.037 44.687,49.932 44.457 C 49.879 44.343,49.876 44.413,49.925 44.612 C 49.991 44.880,49.921 45.003,49.652 45.088 C 49.452 45.151,49.363 45.251,49.452 45.310 C 49.603 45.409,49.010 46.127,48.711 46.207 C 48.438 46.280,48.022 46.733,48.104 46.867 C 48.152 46.945,48.130 46.989,48.054 46.965 C 47.897 46.916,47.078 47.705,46.947 48.032 C 46.878 48.203,46.857 48.200,46.846 48.019 C 46.839 47.881,46.694 47.966,46.488 48.228 C 46.298 48.469,46.031 48.667,45.895 48.667 C 45.758 48.667,45.693 48.742,45.750 48.833 C 45.807 48.925,45.736 49.000,45.593 49.000 C 45.450 49.000,45.333 49.074,45.333 49.163 C 45.333 49.253,45.146 49.374,44.917 49.432 C 44.688 49.489,44.500 49.603,44.500 49.685 C 44.500 49.766,44.350 49.833,44.167 49.833 C 43.983 49.833,43.833 49.908,43.833 50.000 C 43.833 50.092,43.740 50.167,43.625 50.167 C 43.510 50.168,43.048 50.355,42.597 50.584 C 42.146 50.813,41.683 51.000,41.569 51.000 C 41.455 51.000,41.336 51.074,41.306 51.165 C 41.275 51.256,41.044 51.347,40.792 51.368 C 40.172 51.419,40.206 51.667,40.833 51.667 C 41.108 51.667,41.333 51.592,41.333 51.500 C 41.333 51.408,41.506 51.333,41.717 51.333 C 41.927 51.333,42.190 51.243,42.300 51.133 C 42.410 51.023,42.500 50.985,42.500 51.048 C 42.500 51.111,42.922 50.976,43.437 50.748 C 44.489 50.283,44.562 50.264,44.417 50.500 C 44.360 50.592,44.431 50.667,44.573 50.667 C 44.716 50.667,44.833 50.742,44.833 50.833 C 44.833 50.925,44.650 51.000,44.427 51.000 C 44.203 51.000,43.973 51.075,43.917 51.167 C 43.534 51.786,48.199 49.963,50.085 48.756 C 50.592 48.432,51.080 48.167,51.170 48.167 C 51.260 48.167,51.333 48.108,51.333 48.036 C 51.333 47.964,51.565 47.768,51.849 47.600 C 52.504 47.213,55.447 44.395,55.325 44.271 C 55.275 44.220,55.036 44.362,54.795 44.586 L 54.355 44.993 54.420 43.997 C 54.461 43.358,54.420 43.000,54.305 43.000 C 54.190 43.000,54.200 42.910,54.333 42.750 C 54.492 42.558,54.495 42.445,54.346 42.265 C 54.209 42.100,54.204 41.997,54.329 41.919 C 54.536 41.791,54.501 39.833,54.292 39.833 C 54.217 39.833,54.227 39.699,54.314 39.536 C 54.402 39.372,54.438 38.941,54.394 38.577 C 54.350 38.214,54.317 37.804,54.320 37.667 C 54.324 37.529,54.322 36.929,54.317 36.333 C 54.312 35.737,54.322 35.063,54.339 34.833 C 54.373 34.371,54.372 33.264,54.336 32.750 C 54.324 32.567,54.355 31.798,54.405 31.042 C 54.465 30.152,54.437 29.667,54.326 29.667 C 54.220 29.667,54.209 29.557,54.298 29.375 C 54.457 29.051,54.421 24.205,54.256 23.684 C 54.198 23.503,54.241 23.209,54.352 23.032 C 54.562 22.695,54.189 21.882,53.459 21.089 C 53.294 20.909,53.179 20.609,53.204 20.422 C 53.237 20.179,53.168 20.097,52.958 20.132 C 52.798 20.159,52.667 20.111,52.667 20.026 C 52.667 19.872,51.553 19.669,51.423 19.799 M247.250 21.000 C 247.193 21.092,246.951 21.167,246.711 21.167 C 245.457 21.167,242.845 22.950,241.325 24.846 C 240.314 26.106,239.000 29.230,239.000 30.373 C 239.000 30.590,238.911 30.856,238.802 30.964 C 238.519 31.247,238.515 38.582,238.798 38.865 C 238.909 38.976,239.001 39.295,239.002 39.575 C 239.007 40.505,240.502 44.333,240.860 44.333 C 240.937 44.333,241.000 44.434,241.000 44.557 C 241.000 44.743,242.554 46.307,243.357 46.927 C 243.790 47.262,245.480 48.000,245.813 48.000 C 245.997 48.000,246.193 48.075,246.250 48.167 C 246.382 48.381,251.400 48.390,251.794 48.177 C 251.953 48.091,252.290 47.977,252.542 47.924 C 253.015 47.824,253.295 45.500,252.833 45.500 C 252.738 45.500,252.667 45.003,252.667 44.343 C 252.667 42.977,252.632 42.944,251.476 43.199 C 250.323 43.453,249.269 43.441,248.344 43.165 C 246.336 42.564,244.929 40.267,244.722 37.250 C 244.684 36.700,244.575 36.094,244.481 35.904 C 244.385 35.712,244.349 35.120,244.401 34.571 C 244.451 34.028,244.541 33.058,244.599 32.417 C 244.657 31.775,244.762 31.175,244.831 31.083 C 244.901 30.992,245.009 30.562,245.072 30.129 C 245.135 29.696,245.257 29.297,245.343 29.244 C 245.429 29.191,245.500 29.001,245.500 28.823 C 245.500 28.646,245.570 28.500,245.655 28.500 C 245.741 28.500,245.859 28.350,245.917 28.166 C 246.124 27.515,247.629 26.152,248.253 26.051 C 248.577 25.998,248.882 25.890,248.931 25.811 C 249.047 25.622,250.720 25.624,250.925 25.813 C 251.012 25.894,251.359 26.008,251.695 26.068 C 252.401 26.194,252.501 26.092,252.698 25.048 C 252.773 24.655,252.902 24.015,252.985 23.625 C 253.391 21.735,253.394 21.665,253.065 21.415 C 252.892 21.284,252.586 21.175,252.385 21.172 C 252.184 21.169,251.973 21.092,251.917 21.000 C 251.856 20.902,250.890 20.833,249.583 20.833 C 248.276 20.833,247.310 20.902,247.250 21.000 M367.917 21.000 C 367.860 21.092,367.640 21.167,367.427 21.167 C 366.922 21.167,364.833 21.990,364.833 22.189 C 364.833 22.249,364.646 22.344,364.417 22.402 C 364.188 22.459,364.000 22.580,364.000 22.670 C 364.000 22.760,363.917 22.833,363.815 22.833 C 363.444 22.833,361.379 25.148,360.799 26.214 C 360.589 26.601,360.360 26.942,360.291 26.972 C 360.223 27.003,360.119 27.322,360.062 27.681 C 360.004 28.040,359.892 28.333,359.812 28.333 C 359.732 28.333,359.667 28.521,359.667 28.750 C 359.667 28.979,359.579 29.167,359.472 29.167 C 359.365 29.167,359.319 29.208,359.369 29.258 C 359.420 29.309,359.400 29.627,359.325 29.967 C 359.251 30.306,359.128 30.921,359.053 31.333 C 358.879 32.288,358.874 38.061,359.047 38.833 C 359.118 39.154,359.217 39.679,359.267 40.000 C 359.317 40.321,359.417 40.733,359.490 40.917 C 360.175 42.643,360.578 43.587,360.662 43.667 C 360.711 43.712,360.863 43.970,361.000 44.239 C 361.754 45.716,364.574 47.741,366.176 47.956 C 366.542 48.005,366.882 48.110,366.931 48.189 C 367.058 48.395,372.456 48.373,372.583 48.167 C 372.640 48.075,372.980 48.000,373.340 48.000 C 373.699 48.000,374.295 47.879,374.663 47.732 L 375.333 47.464 375.333 40.145 L 375.333 32.827 371.542 32.872 L 367.750 32.917 367.704 35.104 C 367.650 37.617,367.564 37.493,369.375 37.498 L 370.333 37.500 370.333 40.500 L 370.333 43.500 369.708 43.519 C 368.056 43.570,367.263 43.207,366.367 41.989 C 365.982 41.466,365.667 40.917,365.667 40.769 C 365.667 40.621,365.601 40.500,365.521 40.500 C 365.387 40.500,365.145 39.773,365.076 39.167 C 365.061 39.029,365.005 38.804,364.952 38.667 C 364.660 37.908,364.518 34.609,364.712 33.083 C 365.003 30.793,365.036 30.664,365.705 29.167 C 366.575 27.218,367.940 26.172,369.811 26.020 C 371.264 25.902,373.259 26.064,373.575 26.327 C 373.962 26.648,374.212 26.126,374.491 24.417 C 374.580 23.867,374.719 23.064,374.799 22.632 C 374.879 22.200,374.901 21.780,374.848 21.699 C 374.677 21.438,374.037 21.167,373.594 21.167 C 373.359 21.167,373.167 21.092,373.167 21.000 C 373.167 20.896,372.198 20.833,370.593 20.833 C 369.057 20.833,367.978 20.901,367.917 21.000 M379.236 21.153 C 379.198 21.191,379.167 27.247,379.167 34.611 L 379.167 48.000 385.338 48.000 L 391.509 48.000 391.463 45.625 L 391.417 43.250 388.042 43.205 L 384.667 43.160 384.667 39.747 L 384.667 36.333 387.732 36.333 C 391.324 36.333,391.000 36.571,391.000 33.936 C 391.000 31.515,391.225 31.667,387.633 31.667 L 384.667 31.667 384.667 28.833 L 384.667 26.000 387.653 26.000 C 391.534 26.000,391.167 26.263,391.167 23.486 L 391.167 21.175 385.236 21.129 C 381.974 21.104,379.274 21.115,379.236 21.153 M193.271 22.375 C 193.222 23.040,193.110 24.521,193.022 25.667 C 192.934 26.813,192.782 28.875,192.683 30.250 C 192.585 31.625,192.459 33.237,192.403 33.833 C 192.348 34.429,192.233 36.004,192.148 37.333 C 192.009 39.505,191.894 41.046,191.594 44.750 C 191.543 45.392,191.465 46.385,191.423 46.958 L 191.346 48.000 193.830 48.000 L 196.314 48.000 196.395 45.958 C 196.439 44.835,196.517 43.317,196.567 42.583 C 196.618 41.850,196.693 40.350,196.733 39.250 C 196.774 38.150,196.845 37.100,196.891 36.917 C 196.937 36.733,196.980 35.510,196.987 34.198 C 196.996 32.654,197.059 31.850,197.167 31.917 C 197.258 31.973,197.333 32.348,197.333 32.750 C 197.333 33.152,197.401 33.522,197.483 33.573 C 197.566 33.624,197.618 33.895,197.598 34.176 C 197.579 34.456,197.624 34.723,197.698 34.769 C 197.772 34.815,197.833 35.035,197.833 35.257 C 197.833 35.696,198.130 37.047,198.344 37.583 C 198.417 37.767,198.512 38.142,198.554 38.417 C 198.597 38.692,198.757 39.442,198.911 40.083 C 199.391 42.087,199.524 42.738,199.533 43.128 C 199.538 43.336,199.607 43.547,199.688 43.596 C 199.768 43.646,199.833 43.902,199.833 44.167 C 199.833 44.431,199.908 44.693,200.000 44.750 C 200.092 44.807,200.167 45.107,200.167 45.417 C 200.167 45.727,200.242 46.027,200.333 46.083 C 200.425 46.140,200.500 46.433,200.500 46.734 C 200.500 47.655,200.869 47.833,202.779 47.833 C 204.623 47.833,204.877 47.712,205.048 46.750 C 205.129 46.298,205.411 45.082,205.860 43.250 C 205.950 42.883,206.064 42.339,206.114 42.040 C 206.163 41.741,206.270 41.456,206.352 41.405 C 206.433 41.355,206.500 41.060,206.500 40.750 C 206.500 40.440,206.570 40.143,206.656 40.090 C 206.742 40.036,206.782 39.831,206.744 39.634 C 206.706 39.436,206.738 39.194,206.816 39.096 C 206.894 38.997,207.000 38.692,207.052 38.417 C 207.104 38.142,207.228 37.579,207.327 37.167 C 207.427 36.754,207.601 35.916,207.715 35.303 C 207.828 34.691,207.976 34.135,208.044 34.067 C 208.111 34.000,208.168 33.676,208.169 33.347 C 208.171 33.019,208.244 32.637,208.333 32.500 C 208.443 32.331,208.500 32.952,208.510 34.417 C 208.519 35.608,208.568 36.733,208.619 36.917 C 208.671 37.100,208.776 38.750,208.853 40.583 C 208.931 42.417,209.020 44.292,209.053 44.750 C 209.085 45.208,209.124 46.127,209.139 46.792 L 209.167 48.000 211.693 48.000 L 214.219 48.000 214.098 45.042 C 214.032 43.415,213.949 41.708,213.914 41.250 C 213.719 38.714,213.449 33.970,213.393 32.083 C 213.357 30.892,213.260 29.767,213.177 29.583 C 213.094 29.400,212.976 27.675,212.914 25.750 C 212.812 22.557,212.767 21.648,212.693 21.292 C 212.637 21.023,206.833 21.147,206.833 21.417 C 206.833 21.554,206.766 21.667,206.684 21.667 C 206.602 21.667,206.496 21.948,206.448 22.292 C 206.400 22.635,206.278 23.254,206.178 23.667 C 206.077 24.079,205.963 24.642,205.924 24.917 C 205.775 25.956,205.639 26.594,205.499 26.917 C 205.419 27.100,205.321 27.512,205.281 27.833 C 205.241 28.154,205.085 28.854,204.936 29.389 C 204.786 29.923,204.708 30.433,204.763 30.521 C 204.817 30.609,204.789 30.772,204.701 30.882 C 204.612 30.993,204.497 31.346,204.446 31.667 C 204.394 31.988,204.267 32.625,204.162 33.083 C 204.058 33.542,203.890 34.535,203.788 35.292 C 203.686 36.048,203.542 36.667,203.468 36.667 C 203.394 36.667,203.332 37.060,203.331 37.542 C 203.329 38.023,203.256 38.529,203.167 38.667 C 203.046 38.853,203.004 38.760,203.003 38.302 C 203.001 37.963,202.925 37.640,202.833 37.583 C 202.742 37.527,202.663 37.241,202.659 36.948 C 202.649 36.286,202.115 33.726,201.953 33.564 C 201.887 33.498,201.833 33.161,201.833 32.815 C 201.833 32.469,201.766 32.145,201.684 32.094 C 201.601 32.043,201.481 31.476,201.417 30.833 C 201.352 30.191,201.232 29.624,201.150 29.573 C 201.067 29.522,201.000 29.275,201.000 29.023 C 201.000 28.772,200.933 28.495,200.850 28.408 C 200.768 28.321,200.664 27.950,200.620 27.583 C 200.575 27.217,200.494 26.729,200.439 26.500 C 200.170 25.366,199.963 24.356,199.885 23.791 C 199.837 23.446,199.731 23.123,199.649 23.072 C 199.567 23.022,199.500 22.765,199.500 22.501 C 199.500 22.237,199.427 21.829,199.337 21.594 L 199.175 21.167 196.267 21.167 L 193.360 21.167 193.271 22.375 M214.425 21.703 C 214.489 21.998,214.599 22.354,214.668 22.495 C 214.874 22.912,215.114 23.531,215.412 24.417 C 215.566 24.875,215.756 25.400,215.833 25.583 C 215.911 25.767,216.021 26.131,216.078 26.393 C 216.135 26.656,216.336 27.218,216.524 27.643 C 217.077 28.893,217.125 29.020,217.577 30.417 C 217.815 31.150,218.072 31.865,218.150 32.005 C 218.315 32.305,218.578 33.361,218.532 33.542 C 218.514 33.610,218.575 33.667,218.667 33.667 C 218.758 33.667,218.833 33.854,218.833 34.083 C 218.833 34.313,218.908 34.500,219.000 34.500 C 219.092 34.500,219.167 34.683,219.167 34.907 C 219.167 35.131,219.235 35.356,219.319 35.408 C 219.403 35.459,219.522 35.801,219.583 36.168 C 219.645 36.534,219.764 36.833,219.848 36.833 C 219.932 36.833,220.000 37.021,220.000 37.250 C 220.000 37.479,220.075 37.667,220.167 37.667 C 220.274 37.667,220.333 39.500,220.333 42.833 L 220.333 48.000 223.000 48.000 L 225.667 48.000 225.667 42.914 C 225.667 39.856,225.733 37.697,225.833 37.498 C 226.239 36.692,226.298 36.541,226.417 36.000 C 226.486 35.685,226.599 35.313,226.668 35.172 C 227.074 34.349,227.667 32.637,227.667 32.286 C 227.667 32.129,227.742 32.000,227.833 32.000 C 227.925 32.000,228.000 31.886,228.000 31.748 C 228.000 31.609,228.068 31.365,228.152 31.206 C 228.235 31.047,228.429 30.542,228.582 30.083 C 228.734 29.625,228.923 29.100,229.000 28.917 C 229.077 28.733,229.267 28.208,229.421 27.750 C 229.576 27.292,229.769 26.748,229.851 26.542 C 229.933 26.335,230.067 25.998,230.149 25.792 C 230.231 25.585,230.424 25.042,230.579 24.583 C 230.733 24.125,230.921 23.600,230.997 23.417 C 231.073 23.233,231.263 22.746,231.419 22.333 C 231.576 21.921,231.741 21.488,231.788 21.371 C 231.854 21.203,231.255 21.168,228.906 21.204 L 225.940 21.250 225.799 21.750 C 225.721 22.025,225.589 22.550,225.506 22.917 C 225.423 23.283,225.271 23.883,225.168 24.250 C 224.786 25.612,224.652 26.088,224.604 26.250 C 224.577 26.342,224.495 26.792,224.423 27.250 C 224.351 27.708,224.235 28.158,224.167 28.250 C 224.026 28.438,223.908 29.000,223.606 30.917 L 223.397 32.250 223.115 31.308 C 222.960 30.789,222.833 30.171,222.833 29.933 C 222.833 29.695,222.758 29.500,222.667 29.500 C 222.575 29.500,222.500 29.345,222.500 29.156 C 222.500 28.967,222.383 28.424,222.240 27.948 C 222.097 27.472,221.902 26.783,221.807 26.417 C 221.712 26.050,221.566 25.620,221.484 25.461 C 221.401 25.301,221.333 25.029,221.333 24.855 C 221.333 24.493,220.878 22.894,220.651 22.461 C 220.568 22.301,220.500 22.035,220.500 21.869 C 220.500 21.230,220.201 21.167,217.203 21.167 L 214.307 21.167 214.425 21.703 M255.333 34.583 L 255.333 48.008 258.042 47.962 L 260.750 47.917 260.794 42.375 L 260.838 36.833 263.419 36.833 L 266.000 36.833 266.000 42.417 L 266.000 48.000 268.667 48.000 L 271.333 48.000 271.333 34.583 L 271.333 21.167 268.667 21.167 L 266.000 21.167 266.000 26.417 L 266.000 31.667 263.419 31.667 L 260.838 31.667 260.794 26.458 L 260.750 21.250 258.042 21.204 L 255.333 21.158 255.333 34.583 M279.750 21.333 C 279.807 21.425,279.781 21.500,279.693 21.500 C 279.605 21.500,279.495 21.819,279.448 22.208 C 279.401 22.598,279.280 23.254,279.178 23.667 C 279.076 24.079,278.910 24.904,278.809 25.500 C 278.709 26.096,278.566 26.733,278.491 26.917 C 278.417 27.100,278.319 27.475,278.273 27.750 C 278.227 28.025,278.069 28.775,277.923 29.417 C 277.776 30.058,277.611 30.940,277.557 31.375 C 277.502 31.810,277.400 32.167,277.329 32.167 C 277.258 32.167,277.157 32.485,277.105 32.875 C 276.832 34.897,276.586 36.167,276.467 36.167 C 276.393 36.167,276.333 36.393,276.333 36.669 C 276.333 36.945,276.266 37.301,276.184 37.461 C 276.102 37.620,275.907 38.500,275.750 39.417 C 275.593 40.333,275.403 41.233,275.327 41.417 C 275.197 41.732,275.110 42.143,274.889 43.500 C 274.837 43.821,274.719 44.176,274.628 44.290 C 274.537 44.403,274.509 44.680,274.565 44.904 C 274.622 45.129,274.593 45.359,274.501 45.416 C 274.409 45.473,274.333 45.773,274.333 46.083 C 274.333 46.393,274.258 46.693,274.167 46.750 C 274.075 46.807,274.000 47.111,274.000 47.427 L 274.000 48.000 276.738 48.000 L 279.476 48.000 279.580 47.042 C 279.636 46.515,279.754 45.953,279.841 45.794 C 279.929 45.635,280.000 45.245,280.000 44.929 C 280.000 44.612,280.064 44.313,280.143 44.265 C 280.261 44.192,280.477 43.073,280.540 42.208 C 280.552 42.053,281.116 42.000,282.760 42.000 L 284.964 42.000 285.168 43.042 C 285.280 43.615,285.405 44.346,285.446 44.667 C 285.487 44.987,285.585 45.400,285.664 45.583 C 285.743 45.767,285.848 46.217,285.897 46.583 C 286.095 48.053,285.794 47.911,288.825 47.963 L 291.534 48.008 291.447 47.296 C 291.367 46.647,291.207 45.768,290.922 44.417 C 290.774 43.713,290.500 42.191,290.397 41.500 C 290.350 41.179,290.264 40.804,290.208 40.667 C 290.152 40.529,290.084 40.192,290.057 39.917 C 290.012 39.449,289.937 39.070,289.493 37.042 C 289.398 36.606,289.250 35.837,289.163 35.333 C 289.077 34.829,288.961 34.229,288.906 34.000 C 288.851 33.771,288.765 33.226,288.715 32.788 C 288.665 32.351,288.558 31.953,288.478 31.903 C 288.399 31.854,288.333 31.531,288.333 31.185 C 288.333 30.839,288.277 30.500,288.208 30.431 C 288.098 30.322,287.865 28.980,287.561 26.708 C 287.509 26.319,287.399 26.000,287.317 26.000 C 287.234 26.000,287.167 25.667,287.167 25.260 C 287.167 24.853,287.103 24.480,287.024 24.432 C 286.946 24.383,286.833 23.819,286.774 23.179 C 286.714 22.538,286.579 21.823,286.473 21.590 L 286.280 21.167 282.963 21.167 C 280.795 21.167,279.683 21.224,279.750 21.333 M294.207 34.625 L 294.250 48.083 300.000 48.130 C 307.330 48.189,306.520 48.493,306.463 45.704 L 306.417 43.417 302.958 43.372 L 299.500 43.327 299.500 32.247 L 299.500 21.167 296.832 21.167 L 294.165 21.167 294.207 34.625 M309.111 21.278 C 308.870 21.519,308.985 47.780,309.228 47.982 C 309.391 48.117,311.139 48.158,315.353 48.127 L 321.250 48.083 321.250 45.750 L 321.250 43.417 317.875 43.372 L 314.500 43.326 314.500 32.247 L 314.500 21.167 311.861 21.167 C 310.410 21.167,309.172 21.217,309.111 21.278 M324.333 34.583 L 324.333 48.000 330.505 48.000 L 336.676 48.000 336.630 45.625 L 336.583 43.250 333.125 43.205 L 329.667 43.160 329.667 39.747 L 329.667 36.333 332.833 36.333 L 336.000 36.333 336.000 34.101 C 336.000 31.419,336.349 31.667,332.570 31.667 L 329.667 31.667 329.667 28.833 L 329.667 26.000 332.736 26.000 C 336.713 26.000,336.333 26.266,336.333 23.482 L 336.333 21.167 330.333 21.167 L 324.333 21.167 324.333 34.583 M339.833 34.583 L 339.833 48.000 342.248 48.000 L 344.663 48.000 344.707 40.208 C 344.731 35.923,344.806 32.548,344.875 32.708 C 345.094 33.220,345.218 33.567,345.425 34.250 C 345.767 35.379,346.668 37.901,346.839 38.206 C 346.927 38.365,347.000 38.609,347.000 38.748 C 347.000 38.886,347.075 39.000,347.167 39.000 C 347.258 39.000,347.333 39.108,347.333 39.239 C 347.333 39.370,347.529 39.952,347.768 40.531 C 348.504 42.313,348.713 42.853,348.736 43.028 C 348.744 43.089,348.806 43.195,348.875 43.264 C 348.944 43.333,349.000 43.526,349.000 43.694 C 349.000 43.862,349.075 44.000,349.167 44.000 C 349.258 44.000,349.333 44.157,349.333 44.350 C 349.333 44.542,349.438 44.936,349.567 45.225 C 349.695 45.514,349.901 45.994,350.024 46.292 C 350.147 46.590,350.305 46.833,350.374 46.833 C 350.443 46.833,350.500 47.006,350.500 47.217 C 350.500 47.931,350.754 48.000,353.367 48.000 L 355.833 48.000 355.833 34.583 L 355.833 21.167 353.406 21.167 L 350.979 21.167 351.068 28.042 C 351.117 31.823,351.203 35.506,351.259 36.227 C 351.331 37.147,351.307 37.504,351.180 37.425 C 351.081 37.364,351.000 37.202,351.000 37.065 C 351.000 36.929,350.855 36.518,350.678 36.151 C 350.501 35.785,350.304 35.248,350.240 34.957 C 350.177 34.666,350.068 34.313,349.998 34.172 C 349.861 33.893,349.602 33.274,349.405 32.750 C 349.335 32.567,349.264 32.379,349.246 32.333 C 349.228 32.287,349.156 32.006,349.086 31.708 C 349.016 31.410,348.893 31.167,348.813 31.167 C 348.732 31.167,348.667 31.021,348.667 30.843 C 348.667 30.665,348.590 30.472,348.496 30.414 C 348.401 30.356,348.339 30.220,348.356 30.112 C 348.386 29.924,348.233 29.494,347.755 28.419 C 347.632 28.143,347.405 27.542,347.251 27.083 C 347.097 26.625,346.902 26.120,346.819 25.961 C 346.735 25.801,346.667 25.558,346.667 25.419 C 346.667 25.280,346.610 25.167,346.541 25.167 C 346.471 25.167,346.315 24.848,346.194 24.458 C 346.073 24.069,345.875 23.525,345.753 23.250 C 345.631 22.975,345.402 22.394,345.243 21.958 L 344.955 21.167 342.394 21.167 L 339.833 21.167 339.833 34.583 M32.500 22.461 C 31.477 22.538,30.055 22.936,29.333 23.348 C 29.196 23.427,28.834 23.617,28.529 23.771 C 27.954 24.060,26.604 25.332,26.167 25.995 C 26.029 26.204,25.839 26.459,25.744 26.562 C 25.331 27.010,24.467 29.173,24.581 29.471 C 24.631 29.602,24.588 29.811,24.485 29.935 C 24.360 30.085,24.331 30.599,24.397 31.456 C 24.540 33.282,24.611 33.622,25.012 34.373 C 25.097 34.532,25.167 34.776,25.167 34.914 C 25.167 35.053,25.223 35.168,25.292 35.169 C 25.360 35.170,25.560 35.470,25.735 35.835 C 25.910 36.201,26.117 36.500,26.193 36.500 C 26.270 36.500,26.333 36.585,26.333 36.689 C 26.333 36.793,26.783 37.508,27.333 38.277 C 27.883 39.046,28.333 39.748,28.333 39.837 C 28.333 39.927,28.390 40.001,28.458 40.003 C 28.527 40.005,28.805 40.380,29.076 40.837 C 29.347 41.293,29.611 41.667,29.663 41.667 C 29.715 41.667,29.899 41.929,30.072 42.250 C 30.244 42.571,30.440 42.833,30.507 42.833 C 30.573 42.833,30.675 42.965,30.733 43.125 C 30.880 43.530,31.138 43.934,31.958 45.035 C 32.348 45.558,32.667 46.064,32.667 46.160 C 32.667 46.764,33.472 46.254,34.168 45.208 C 34.580 44.590,34.958 44.046,35.009 44.000 C 35.059 43.954,35.273 43.633,35.483 43.287 C 35.694 42.941,35.952 42.565,36.058 42.452 C 36.240 42.258,38.727 38.634,39.083 38.044 C 39.175 37.892,39.380 37.620,39.540 37.438 C 39.699 37.256,39.873 36.971,39.926 36.804 C 39.979 36.637,40.092 36.500,40.178 36.500 C 40.263 36.500,40.333 36.387,40.333 36.250 C 40.333 36.112,40.398 36.000,40.477 36.000 C 40.557 36.000,40.754 35.644,40.916 35.208 C 41.078 34.773,41.276 34.345,41.355 34.258 C 41.435 34.171,41.500 33.942,41.500 33.750 C 41.500 33.558,41.579 33.321,41.675 33.225 C 41.904 32.996,41.901 29.501,41.672 29.272 C 41.577 29.177,41.500 28.964,41.500 28.798 C 41.500 28.631,41.431 28.365,41.347 28.206 C 41.263 28.047,41.045 27.579,40.863 27.167 C 40.542 26.438,39.761 25.405,39.083 24.812 C 38.026 23.886,37.715 23.666,37.098 23.410 C 36.235 23.051,35.835 22.894,35.417 22.746 C 34.944 22.580,33.192 22.409,32.500 22.461 M34.798 27.477 C 34.833 27.581,34.953 27.667,35.066 27.667 C 35.302 27.667,35.962 28.356,36.422 29.083 C 37.633 30.997,35.800 34.670,33.792 34.353 C 33.723 34.342,33.667 34.398,33.667 34.476 C 33.667 34.647,32.720 34.616,32.250 34.430 C 30.545 33.755,29.878 33.090,29.560 31.750 C 29.322 30.750,29.772 28.500,30.208 28.500 C 30.278 28.500,30.499 28.313,30.698 28.083 C 30.897 27.854,31.159 27.667,31.280 27.667 C 31.401 27.667,31.500 27.597,31.500 27.512 C 31.500 27.145,34.676 27.111,34.798 27.477 M283.213 29.636 C 283.288 30.249,283.390 31.181,283.439 31.708 C 283.489 32.235,283.592 32.667,283.667 32.667 C 283.743 32.667,283.837 33.135,283.877 33.708 C 283.917 34.281,283.990 34.900,284.040 35.083 C 284.090 35.267,284.186 35.923,284.252 36.542 L 284.372 37.667 282.750 37.667 L 281.128 37.667 281.241 37.208 C 281.392 36.597,281.647 35.222,281.744 34.500 C 281.787 34.179,281.903 33.504,282.002 33.000 C 282.211 31.936,282.433 30.568,282.572 29.500 C 282.775 27.928,283.011 27.978,283.213 29.636 M52.881 34.917 C 52.882 35.375,52.915 35.543,52.953 35.289 C 52.991 35.036,52.990 34.661,52.951 34.456 C 52.911 34.251,52.880 34.458,52.881 34.917 M52.712 36.667 C 52.712 37.079,52.745 37.248,52.784 37.042 C 52.824 36.835,52.824 36.498,52.784 36.292 C 52.745 36.085,52.712 36.254,52.712 36.667 M11.833 45.417 C 11.833 45.554,11.908 45.667,12.000 45.667 C 12.092 45.667,12.167 45.554,12.167 45.417 C 12.167 45.279,12.092 45.167,12.000 45.167 C 11.908 45.167,11.833 45.279,11.833 45.417 M19.708 49.788 C 20.052 49.824,20.615 49.824,20.958 49.788 C 21.302 49.752,21.021 49.723,20.333 49.723 C 19.646 49.723,19.365 49.752,19.708 49.788 M42.583 51.500 C 42.279 51.631,42.287 51.643,42.667 51.643 C 42.896 51.643,43.233 51.579,43.417 51.500 C 43.721 51.369,43.713 51.357,43.333 51.357 C 43.104 51.357,42.767 51.421,42.583 51.500 M39.220 51.729 C 38.929 51.832,38.635 51.973,38.568 52.042 C 38.405 52.207,39.904 52.185,40.750 52.010 L 41.417 51.872 40.742 51.852 C 40.370 51.842,39.995 51.767,39.908 51.687 C 39.817 51.602,39.527 51.620,39.220 51.729 M37.417 52.000 C 37.137 52.120,37.171 52.145,37.625 52.155 C 37.923 52.161,38.167 52.092,38.167 52.000 C 38.167 51.802,37.877 51.802,37.417 52.000 " stroke="none" fill="#353535" fill-rule="evenodd"></path><path id="path1" d="M29.180 11.625 C 29.074 11.807,29.008 11.834,29.005 11.697 C 29.002 11.550,28.884 11.514,28.650 11.589 C 28.457 11.650,28.044 11.700,27.733 11.700 C 27.421 11.700,27.167 11.769,27.167 11.852 C 27.167 11.936,26.942 11.965,26.667 11.917 C 26.392 11.868,25.905 11.938,25.584 12.072 C 25.263 12.207,25.000 12.281,25.000 12.238 C 25.000 12.195,24.703 12.311,24.340 12.497 C 23.977 12.682,23.578 12.833,23.453 12.833 C 23.328 12.833,22.932 12.976,22.572 13.151 C 22.213 13.326,21.862 13.434,21.793 13.392 C 21.723 13.349,21.667 13.393,21.667 13.490 C 21.667 13.587,21.554 13.667,21.417 13.667 C 21.279 13.667,21.167 13.736,21.167 13.820 C 21.167 13.904,20.952 14.021,20.689 14.078 C 20.427 14.136,20.068 14.311,19.893 14.467 C 19.718 14.622,19.295 14.893,18.954 15.068 C 18.613 15.243,18.333 15.449,18.333 15.526 C 18.333 15.603,18.240 15.667,18.125 15.668 C 18.010 15.669,17.640 15.931,17.303 16.251 C 16.965 16.571,16.613 16.833,16.521 16.833 C 16.428 16.833,16.235 17.000,16.093 17.204 C 15.950 17.407,15.833 17.510,15.833 17.432 C 15.833 17.354,15.552 17.615,15.208 18.012 C 14.865 18.409,14.452 18.869,14.292 19.034 C 14.131 19.199,14.000 19.376,14.000 19.429 C 14.000 19.585,13.546 19.990,13.463 19.908 C 13.421 19.866,13.244 20.113,13.068 20.457 C 12.893 20.802,12.581 21.249,12.375 21.450 C 12.169 21.652,12.000 21.927,12.000 22.061 C 12.000 22.196,11.944 22.331,11.875 22.361 C 11.717 22.431,11.203 23.275,10.952 23.875 C 10.846 24.127,10.702 24.333,10.630 24.333 C 10.559 24.333,10.500 24.506,10.500 24.717 C 10.500 24.927,10.410 25.190,10.300 25.300 C 10.189 25.411,10.174 25.500,10.266 25.500 C 10.358 25.500,11.254 24.692,12.258 23.704 C 14.701 21.299,17.032 19.727,19.833 18.596 C 20.246 18.430,20.733 18.233,20.917 18.159 C 21.486 17.928,23.851 17.264,24.750 17.081 C 26.021 16.823,27.007 16.669,28.066 16.563 C 29.062 16.463,29.176 16.419,28.920 16.232 C 28.735 16.096,28.666 15.909,28.735 15.730 C 28.796 15.570,28.753 15.387,28.638 15.316 C 28.474 15.214,28.474 15.022,28.640 14.376 C 28.846 13.571,28.773 13.028,28.429 12.796 C 28.097 12.573,28.586 12.099,29.337 11.916 C 30.149 11.718,30.437 11.333,29.772 11.333 C 29.540 11.333,29.273 11.465,29.180 11.625 M30.592 11.486 C 30.540 11.570,30.573 11.663,30.664 11.694 C 31.076 11.832,39.000 11.642,39.000 11.494 C 39.000 11.285,30.721 11.277,30.592 11.486 M30.333 16.833 C 30.333 16.943,33.188 16.990,38.625 16.970 C 44.558 16.948,46.134 16.907,44.167 16.826 C 39.653 16.640,30.333 16.645,30.333 16.833 M48.333 19.500 C 48.333 19.592,48.652 19.667,49.042 19.669 C 49.431 19.670,50.031 19.717,50.375 19.774 C 50.884 19.858,51.000 19.826,51.000 19.605 C 51.000 19.376,50.788 19.333,49.667 19.333 C 48.889 19.333,48.333 19.403,48.333 19.500 M50.828 22.838 C 50.823 25.435,50.796 25.715,50.578 25.426 C 50.183 24.905,50.297 25.345,50.811 26.333 C 51.074 26.837,51.421 27.662,51.582 28.167 C 51.743 28.671,51.940 29.155,52.020 29.242 C 52.101 29.329,52.167 29.568,52.167 29.773 C 52.167 29.979,52.235 30.189,52.318 30.241 C 52.402 30.292,52.519 30.991,52.578 31.792 C 52.833 35.233,53.256 34.831,53.237 31.167 C 53.220 27.904,52.654 24.515,51.635 21.583 C 50.915 19.512,50.834 19.638,50.828 22.838 M13.743 36.090 C 13.474 38.601,13.955 42.578,14.990 46.417 C 15.415 47.992,16.303 49.647,16.108 48.500 C 16.030 48.043,15.943 43.875,15.994 43.083 C 16.000 42.992,16.078 43.029,16.167 43.167 C 16.523 43.719,16.302 42.961,15.768 41.807 C 15.458 41.134,15.110 40.283,14.995 39.917 C 14.881 39.550,14.728 39.100,14.655 38.917 C 14.460 38.426,14.314 37.556,14.222 36.333 C 14.109 34.847,13.888 34.735,13.743 36.090 M56.282 43.722 C 53.203 47.535,48.232 50.597,43.250 51.747 C 42.608 51.895,41.933 52.054,41.750 52.101 C 41.330 52.209,39.395 52.486,38.083 52.627 C 37.213 52.720,37.157 52.746,37.649 52.825 C 38.218 52.917,38.628 54.632,38.151 54.927 C 37.892 55.087,37.985 55.290,38.375 55.415 C 38.693 55.517,38.705 55.547,38.458 55.613 C 38.107 55.707,38.110 55.656,38.417 56.391 C 38.681 57.024,38.744 57.372,38.539 57.069 C 38.391 56.851,37.333 57.090,37.333 57.342 C 37.333 57.519,39.130 57.528,39.417 57.354 C 39.508 57.298,39.808 57.242,40.083 57.228 C 40.358 57.215,40.921 57.084,41.333 56.938 C 41.746 56.791,42.215 56.670,42.375 56.669 C 42.535 56.668,42.667 56.592,42.667 56.500 C 42.667 56.408,42.873 56.333,43.125 56.332 C 43.377 56.332,43.798 56.219,44.061 56.082 C 44.323 55.945,44.642 55.833,44.769 55.833 C 44.896 55.833,45.000 55.758,45.000 55.667 C 45.000 55.575,45.112 55.500,45.250 55.500 C 45.387 55.500,45.500 55.425,45.500 55.333 C 45.500 55.242,45.636 55.167,45.801 55.167 C 45.967 55.167,46.249 55.057,46.426 54.922 C 46.604 54.787,46.886 54.675,47.052 54.672 C 47.217 54.669,47.307 54.592,47.250 54.500 C 47.193 54.408,47.267 54.333,47.413 54.333 C 47.691 54.333,49.615 52.960,50.335 52.248 C 50.565 52.020,50.859 51.833,50.988 51.833 C 51.117 51.833,51.178 51.789,51.123 51.734 C 51.069 51.680,51.300 51.399,51.637 51.110 C 51.974 50.820,52.302 50.504,52.366 50.406 C 52.430 50.309,52.786 49.896,53.158 49.489 C 53.529 49.083,53.833 48.690,53.833 48.617 C 53.833 48.545,54.021 48.297,54.250 48.068 C 54.479 47.839,54.667 47.542,54.667 47.409 C 54.667 47.276,54.729 47.167,54.805 47.167 C 54.881 47.167,55.050 46.960,55.180 46.708 C 55.310 46.456,55.510 46.151,55.625 46.030 C 55.740 45.909,55.833 45.665,55.833 45.488 C 55.833 45.311,55.900 45.167,55.981 45.167 C 56.062 45.167,56.171 45.035,56.223 44.875 C 56.276 44.715,56.430 44.341,56.567 44.046 C 56.861 43.405,56.693 43.213,56.282 43.722 M16.112 49.403 C 16.025 49.628,16.163 49.662,17.047 49.637 C 18.050 49.608,18.056 49.605,17.253 49.543 C 16.797 49.507,16.376 49.402,16.318 49.309 C 16.256 49.208,16.172 49.247,16.112 49.403 M36.631 57.258 C 36.581 57.308,36.062 57.411,35.478 57.487 L 34.417 57.624 35.703 57.646 C 36.784 57.663,36.974 57.627,36.894 57.417 C 36.787 57.140,36.763 57.125,36.631 57.258 " stroke="none" fill="#797b7a" fill-rule="evenodd"></path><path id="path2" d="M98.292 20.799 C 97.581 20.825,97.000 20.911,97.000 20.988 C 97.000 21.066,96.751 21.176,96.446 21.234 C 96.141 21.291,95.732 21.487,95.536 21.669 C 95.341 21.851,95.093 22.000,94.985 22.000 C 94.757 22.000,93.000 23.789,93.000 24.022 C 93.000 24.109,92.847 24.345,92.660 24.545 C 92.473 24.746,92.278 25.080,92.225 25.288 C 92.173 25.496,92.064 25.667,91.982 25.667 C 91.900 25.667,91.833 25.854,91.833 26.083 C 91.833 26.313,91.775 26.500,91.704 26.500 C 91.535 26.500,91.000 28.304,91.000 28.873 C 91.000 29.116,90.925 29.360,90.833 29.417 C 90.742 29.473,90.667 29.848,90.667 30.250 C 90.667 30.652,90.592 31.027,90.500 31.083 C 90.397 31.147,90.333 32.526,90.333 34.667 C 90.333 36.807,90.397 38.187,90.500 38.250 C 90.592 38.307,90.667 38.724,90.667 39.177 C 90.667 39.629,90.731 40.000,90.810 40.000 C 90.888 40.000,90.999 40.449,91.057 40.998 C 91.114 41.547,91.226 42.128,91.305 42.289 C 91.383 42.451,91.535 42.751,91.641 42.956 C 91.747 43.161,91.833 43.442,91.833 43.581 C 91.833 43.720,91.902 43.833,91.987 43.833 C 92.071 43.833,92.186 44.044,92.243 44.301 C 92.299 44.558,92.493 44.875,92.673 45.004 C 92.853 45.134,93.000 45.323,93.000 45.424 C 93.000 45.686,94.453 47.167,94.710 47.167 C 94.829 47.167,95.036 47.319,95.170 47.504 C 95.306 47.693,95.691 47.887,96.040 47.942 C 96.385 47.998,96.667 48.108,96.667 48.188 C 96.667 48.268,97.754 48.333,99.083 48.333 C 100.412 48.333,101.500 48.268,101.500 48.189 C 101.500 48.109,101.817 48.001,102.205 47.949 C 102.592 47.897,102.936 47.775,102.969 47.677 C 103.001 47.580,103.100 47.500,103.188 47.500 C 103.454 47.500,104.667 46.410,104.667 46.170 C 104.667 46.089,104.809 45.977,104.984 45.922 C 105.158 45.866,105.440 45.554,105.609 45.228 C 105.778 44.901,105.991 44.492,106.081 44.317 C 106.172 44.143,106.303 44.000,106.373 44.000 C 106.443 44.000,106.500 43.896,106.500 43.769 C 106.500 43.642,106.612 43.323,106.749 43.061 C 106.886 42.798,106.998 42.377,106.999 42.125 C 107.000 41.873,107.075 41.667,107.167 41.667 C 107.258 41.667,107.333 41.419,107.333 41.117 C 107.333 40.814,107.427 40.473,107.542 40.358 C 107.700 40.200,107.750 38.757,107.750 34.297 C 107.750 29.763,107.703 28.429,107.542 28.375 C 107.427 28.337,107.333 28.049,107.333 27.736 C 107.333 27.423,107.258 27.167,107.167 27.167 C 107.075 27.167,107.000 27.005,107.000 26.808 C 107.000 26.463,106.215 24.671,105.989 24.500 C 105.928 24.454,105.826 24.248,105.761 24.042 C 105.697 23.835,105.574 23.667,105.489 23.667 C 105.403 23.667,105.333 23.594,105.333 23.506 C 105.333 23.302,104.144 22.000,103.958 22.000 C 103.882 22.000,103.657 21.848,103.458 21.663 C 103.259 21.478,102.812 21.281,102.465 21.225 C 102.117 21.169,101.833 21.065,101.833 20.992 C 101.833 20.831,100.037 20.733,98.292 20.799 M146.542 20.799 C 145.877 20.826,145.333 20.920,145.333 21.007 C 145.333 21.095,145.221 21.167,145.084 21.167 C 144.737 21.167,143.500 21.718,143.500 21.873 C 143.500 21.943,143.405 22.000,143.288 22.000 C 142.921 22.000,141.562 23.465,140.997 24.469 C 140.782 24.853,140.545 25.167,140.471 25.167 C 140.398 25.167,140.289 25.467,140.231 25.833 C 140.172 26.200,140.059 26.500,139.979 26.500 C 139.899 26.500,139.833 26.650,139.833 26.833 C 139.833 27.017,139.758 27.167,139.667 27.167 C 139.575 27.167,139.500 27.377,139.500 27.633 C 139.500 27.890,139.425 28.175,139.334 28.266 C 139.243 28.357,139.119 29.012,139.059 29.721 C 138.999 30.431,138.886 31.051,138.808 31.099 C 138.623 31.214,138.623 38.333,138.809 38.333 C 138.888 38.333,139.004 38.952,139.067 39.707 C 139.130 40.463,139.253 41.153,139.341 41.241 C 139.428 41.328,139.500 41.610,139.500 41.867 C 139.500 42.123,139.575 42.333,139.667 42.333 C 139.758 42.333,139.833 42.479,139.833 42.657 C 139.833 42.835,139.900 43.021,139.981 43.072 C 140.062 43.122,140.178 43.426,140.239 43.748 C 140.299 44.070,140.420 44.333,140.508 44.333 C 140.595 44.333,140.667 44.446,140.667 44.583 C 140.667 44.721,140.730 44.833,140.807 44.833 C 140.884 44.833,141.033 45.024,141.140 45.258 C 141.376 45.776,142.681 47.165,142.933 47.166 C 143.033 47.166,143.252 47.318,143.419 47.503 C 143.586 47.687,144.010 47.884,144.361 47.940 C 144.713 47.997,145.000 48.108,145.000 48.188 C 145.000 48.268,146.087 48.333,147.417 48.333 C 148.917 48.333,149.833 48.270,149.833 48.167 C 149.833 48.075,149.991 48.000,150.183 48.000 C 151.052 48.000,153.833 45.831,153.833 45.153 C 153.833 45.021,153.977 44.824,154.152 44.715 C 154.327 44.605,154.520 44.288,154.581 44.010 C 154.642 43.732,154.762 43.461,154.846 43.409 C 154.931 43.356,155.000 43.168,155.000 42.990 C 155.000 42.812,155.075 42.667,155.167 42.667 C 155.258 42.667,155.333 42.457,155.333 42.200 C 155.333 41.943,155.408 41.659,155.499 41.567 C 155.590 41.476,155.714 40.824,155.774 40.117 C 155.833 39.411,155.946 38.833,156.024 38.833 C 156.103 38.833,156.167 36.846,156.167 34.417 C 156.167 31.988,156.103 30.000,156.024 30.000 C 155.946 30.000,155.833 29.422,155.774 28.716 C 155.714 28.010,155.590 27.357,155.499 27.266 C 155.408 27.175,155.333 26.927,155.333 26.717 C 155.333 26.506,155.258 26.333,155.167 26.333 C 155.075 26.333,155.000 26.183,155.000 26.000 C 155.000 25.817,154.933 25.667,154.852 25.667 C 154.770 25.667,154.655 25.404,154.594 25.083 C 154.534 24.762,154.413 24.500,154.326 24.500 C 154.238 24.500,154.167 24.387,154.167 24.250 C 154.167 24.113,154.097 24.000,154.011 24.000 C 153.926 24.000,153.809 23.851,153.751 23.669 C 153.626 23.275,152.360 22.000,152.094 22.000 C 151.991 22.000,151.799 21.850,151.667 21.667 C 151.535 21.484,151.163 21.286,150.839 21.227 C 150.515 21.167,150.212 21.063,150.167 20.996 C 150.061 20.841,148.118 20.735,146.542 20.799 M76.333 34.417 L 76.333 48.000 79.083 48.000 L 81.833 48.000 81.833 42.583 L 81.833 37.167 84.833 37.167 L 87.833 37.167 87.833 34.833 L 87.833 32.500 84.833 32.500 L 81.833 32.500 81.833 29.250 L 81.833 26.000 85.083 26.000 L 88.333 26.000 88.333 23.417 L 88.333 20.833 82.333 20.833 L 76.333 20.833 76.333 34.417 M111.041 34.708 L 111.083 48.250 117.205 48.294 L 123.326 48.337 123.419 47.960 C 123.471 47.753,123.491 46.608,123.465 45.417 L 123.417 43.250 119.958 43.205 L 116.500 43.160 116.500 32.163 L 116.500 21.167 113.749 21.167 L 110.998 21.167 111.041 34.708 M126.000 34.750 L 126.000 48.333 132.167 48.333 L 138.333 48.333 138.333 45.750 L 138.333 43.167 134.917 43.167 L 131.500 43.167 131.500 32.167 L 131.500 21.167 128.750 21.167 L 126.000 21.167 126.000 34.750 M157.000 21.500 C 157.000 21.683,157.075 21.833,157.167 21.833 C 157.258 21.833,157.333 22.204,157.333 22.657 C 157.333 23.110,157.400 23.522,157.482 23.572 C 157.564 23.623,157.685 24.340,157.750 25.167 C 157.815 25.993,157.936 26.710,158.018 26.761 C 158.100 26.812,158.167 27.224,158.167 27.677 C 158.167 28.129,158.242 28.500,158.333 28.500 C 158.425 28.500,158.500 28.871,158.500 29.323 C 158.500 29.776,158.566 30.188,158.647 30.238 C 158.727 30.287,158.847 31.042,158.912 31.914 C 158.978 32.786,159.099 33.542,159.182 33.593 C 159.265 33.644,159.333 34.007,159.333 34.399 C 159.333 34.791,159.390 35.167,159.458 35.235 C 159.578 35.353,159.885 37.324,160.104 39.375 C 160.161 39.902,160.273 40.333,160.353 40.333 C 160.434 40.333,160.500 40.708,160.500 41.167 C 160.500 41.625,160.562 42.000,160.638 42.000 C 160.714 42.000,160.865 42.769,160.974 43.708 C 161.306 46.576,161.360 46.911,161.516 47.075 C 161.599 47.162,161.667 47.406,161.667 47.617 L 161.667 48.000 164.429 48.000 C 167.510 48.000,167.667 47.949,167.667 46.938 C 167.667 46.616,167.734 46.312,167.816 46.261 C 167.898 46.210,168.018 45.568,168.083 44.834 C 168.148 44.100,168.269 43.500,168.351 43.500 C 168.433 43.500,168.500 43.163,168.500 42.750 C 168.500 42.337,168.575 42.000,168.667 42.000 C 168.758 42.000,168.833 41.704,168.833 41.343 C 168.833 40.982,168.902 40.644,168.985 40.593 C 169.069 40.541,169.190 39.862,169.255 39.083 C 169.320 38.304,169.439 37.667,169.520 37.667 C 169.601 37.667,169.667 37.334,169.667 36.927 C 169.667 36.519,169.742 36.140,169.833 36.083 C 169.925 36.027,170.000 35.625,170.000 35.190 C 170.000 34.756,170.071 34.329,170.157 34.242 C 170.243 34.155,170.342 33.708,170.377 33.250 C 170.429 32.566,170.445 32.633,170.470 33.625 C 170.487 34.299,170.574 34.833,170.667 34.833 C 170.758 34.833,170.833 35.247,170.833 35.752 C 170.833 36.258,170.902 36.801,170.986 36.961 C 171.071 37.120,171.223 37.962,171.325 38.833 C 171.427 39.704,171.552 40.773,171.604 41.208 C 171.656 41.644,171.767 42.000,171.849 42.000 C 171.932 42.000,172.000 42.333,172.000 42.740 C 172.000 43.147,172.067 43.522,172.149 43.572 C 172.231 43.623,172.351 44.340,172.417 45.167 C 172.482 45.993,172.603 46.710,172.684 46.761 C 172.766 46.812,172.833 47.111,172.833 47.427 L 172.833 48.000 175.792 47.999 L 178.750 47.997 178.958 47.549 C 179.073 47.302,179.167 46.820,179.167 46.477 C 179.167 46.134,179.232 45.813,179.312 45.763 C 179.391 45.714,179.509 44.998,179.574 44.173 C 179.638 43.347,179.761 42.628,179.846 42.576 C 179.931 42.523,180.000 42.110,180.000 41.657 C 180.000 41.204,180.075 40.833,180.167 40.833 C 180.258 40.833,180.333 40.458,180.333 40.000 C 180.333 39.542,180.401 39.167,180.484 39.167 C 180.568 39.167,180.689 38.454,180.754 37.583 C 180.820 36.712,180.939 36.000,181.020 36.000 C 181.101 36.000,181.167 35.677,181.167 35.283 C 181.167 34.889,181.234 34.495,181.317 34.408 C 181.400 34.321,181.510 33.912,181.561 33.500 C 181.852 31.174,182.098 29.677,182.208 29.568 C 182.277 29.500,182.333 29.124,182.333 28.732 C 182.333 28.340,182.399 27.979,182.480 27.929 C 182.561 27.879,182.680 27.125,182.746 26.253 C 182.811 25.380,182.932 24.667,183.016 24.667 C 183.099 24.667,183.167 24.334,183.167 23.927 C 183.167 23.519,183.242 23.140,183.333 23.083 C 183.425 23.027,183.500 22.572,183.500 22.073 L 183.500 21.167 180.791 21.167 L 178.081 21.167 177.884 21.625 C 177.776 21.877,177.635 23.040,177.571 24.208 C 177.507 25.377,177.390 26.333,177.311 26.333 C 177.232 26.333,177.167 26.858,177.167 27.500 C 177.167 28.167,177.095 28.667,177.000 28.667 C 176.908 28.667,176.833 29.098,176.833 29.626 C 176.833 30.154,176.763 30.830,176.677 31.129 C 176.592 31.428,176.469 32.646,176.404 33.836 C 176.339 35.026,176.222 36.000,176.143 36.000 C 176.064 36.000,176.000 36.600,176.000 37.333 C 176.000 39.342,175.732 38.934,175.599 36.723 C 175.536 35.655,175.412 34.647,175.325 34.484 C 175.238 34.322,175.167 33.846,175.167 33.428 C 175.167 33.009,175.092 32.667,175.000 32.667 C 174.908 32.667,174.833 32.254,174.833 31.750 C 174.833 31.246,174.766 30.833,174.685 30.833 C 174.603 30.833,174.482 30.083,174.417 29.167 C 174.351 28.250,174.230 27.500,174.149 27.500 C 174.067 27.500,174.000 27.087,174.000 26.583 C 174.000 26.079,173.939 25.667,173.864 25.667 C 173.790 25.667,173.640 24.935,173.530 24.042 C 173.421 23.148,173.287 22.135,173.232 21.792 L 173.132 21.167 170.671 21.167 L 168.210 21.167 168.107 21.792 C 168.050 22.135,168.003 22.656,168.002 22.948 C 168.001 23.241,167.925 23.527,167.833 23.583 C 167.742 23.640,167.667 24.019,167.667 24.427 C 167.667 24.834,167.601 25.167,167.520 25.167 C 167.439 25.167,167.320 25.879,167.254 26.750 C 167.189 27.621,167.068 28.333,166.984 28.333 C 166.901 28.333,166.833 28.708,166.833 29.167 C 166.833 29.625,166.766 30.000,166.683 30.000 C 166.600 30.000,166.489 30.356,166.436 30.792 C 166.027 34.157,165.921 34.833,165.802 34.833 C 165.728 34.833,165.667 35.166,165.667 35.573 C 165.667 35.981,165.592 36.360,165.500 36.417 C 165.408 36.473,165.325 36.946,165.314 37.468 L 165.295 38.417 165.127 37.750 C 165.035 37.383,164.926 36.390,164.885 35.542 C 164.844 34.694,164.741 34.000,164.655 34.000 C 164.570 34.000,164.500 33.438,164.500 32.750 C 164.500 32.063,164.433 31.500,164.352 31.500 C 164.271 31.500,164.150 30.449,164.083 29.165 C 164.017 27.881,163.896 26.789,163.815 26.738 C 163.733 26.688,163.667 26.126,163.667 25.490 C 163.667 24.830,163.595 24.333,163.500 24.333 C 163.405 24.333,163.333 23.833,163.333 23.167 C 163.333 22.500,163.262 22.000,163.167 22.000 C 163.075 22.000,163.000 21.813,163.000 21.583 L 163.000 21.167 160.000 21.167 C 157.111 21.167,157.000 21.179,157.000 21.500 M193.214 21.917 C 193.216 22.375,193.248 22.543,193.286 22.289 C 193.325 22.036,193.324 21.661,193.284 21.456 C 193.244 21.251,193.213 21.458,193.214 21.917 M25.777 26.167 C 25.614 26.442,25.518 26.667,25.563 26.667 C 25.607 26.667,25.804 26.442,26.000 26.167 C 26.196 25.892,26.292 25.667,26.214 25.667 C 26.136 25.667,25.939 25.892,25.777 26.167 M99.702 25.875 C 100.245 26.186,100.566 26.527,100.838 27.083 C 100.973 27.358,101.127 27.621,101.181 27.667 C 101.371 27.828,101.707 29.598,101.782 30.833 C 101.824 31.521,101.928 32.155,102.013 32.242 C 102.225 32.460,102.214 36.667,102.000 36.667 C 101.907 36.667,101.833 37.124,101.833 37.705 C 101.833 38.684,101.377 41.319,101.176 41.500 C 101.125 41.546,100.973 41.808,100.838 42.083 C 100.417 42.945,99.193 43.825,99.042 43.375 C 99.004 43.260,98.869 43.167,98.742 43.167 C 98.398 43.167,97.528 42.251,97.404 41.760 C 97.345 41.524,97.230 41.289,97.148 41.239 C 97.067 41.188,97.000 40.964,97.000 40.740 C 97.000 40.516,96.925 40.333,96.833 40.333 C 96.742 40.333,96.667 40.002,96.667 39.597 C 96.667 39.192,96.590 38.836,96.497 38.805 C 96.264 38.727,96.263 30.607,96.497 30.529 C 96.590 30.498,96.667 30.183,96.667 29.829 C 96.667 29.476,96.742 29.140,96.833 29.083 C 96.925 29.027,97.000 28.760,97.000 28.490 C 97.000 28.221,97.066 28.000,97.146 28.000 C 97.226 28.000,97.338 27.766,97.396 27.481 C 97.500 26.960,98.400 26.008,98.792 26.003 C 98.906 26.001,99.000 25.925,99.000 25.833 C 99.000 25.608,99.263 25.624,99.702 25.875 M147.833 25.833 C 147.833 25.925,147.946 26.000,148.083 26.000 C 148.386 26.000,148.845 26.446,149.118 27.005 C 149.571 27.933,149.833 28.734,149.833 29.187 C 149.833 29.451,149.908 29.667,150.000 29.667 C 150.097 29.667,150.167 30.222,150.167 31.000 C 150.167 31.778,150.236 32.333,150.333 32.333 C 150.436 32.333,150.500 33.167,150.500 34.500 C 150.500 35.833,150.436 36.667,150.333 36.667 C 150.237 36.667,150.167 37.191,150.167 37.907 C 150.167 38.589,150.092 39.193,150.000 39.250 C 149.908 39.307,149.833 39.649,149.833 40.010 C 149.833 40.371,149.768 40.667,149.688 40.667 C 149.608 40.667,149.495 40.967,149.436 41.333 C 149.377 41.700,149.255 42.000,149.165 42.000 C 149.074 42.000,149.000 42.112,149.000 42.250 C 149.000 42.567,148.409 43.167,148.097 43.167 C 147.967 43.167,147.831 43.257,147.794 43.367 C 147.648 43.806,145.833 42.540,145.833 41.999 C 145.833 41.908,145.765 41.833,145.681 41.833 C 145.598 41.833,145.479 41.534,145.417 41.168 C 145.355 40.801,145.236 40.459,145.152 40.408 C 145.068 40.356,145.000 40.023,145.000 39.667 C 145.000 39.311,144.925 38.973,144.833 38.917 C 144.737 38.857,144.667 37.943,144.667 36.740 C 144.667 35.199,144.613 34.663,144.458 34.654 C 144.292 34.643,144.292 34.624,144.458 34.556 C 144.609 34.496,144.667 33.919,144.667 32.486 C 144.667 31.394,144.734 30.500,144.817 30.500 C 144.899 30.500,145.005 30.181,145.052 29.792 C 145.189 28.656,145.532 27.333,145.689 27.333 C 145.768 27.333,145.833 27.253,145.833 27.154 C 145.833 26.953,146.590 26.188,147.090 25.885 C 147.497 25.637,147.833 25.614,147.833 25.833 M359.783 27.899 C 359.715 28.072,359.698 28.254,359.746 28.302 C 359.898 28.454,360.032 28.205,359.968 27.888 C 359.910 27.598,359.901 27.599,359.783 27.899 M41.953 30.833 C 42.005 31.337,42.074 31.781,42.107 31.819 C 42.231 31.963,42.137 30.569,42.002 30.250 C 41.913 30.043,41.895 30.263,41.953 30.833 M192.333 31.750 C 192.333 32.071,192.363 32.333,192.398 32.333 C 192.434 32.333,192.494 32.071,192.532 31.750 C 192.569 31.429,192.540 31.167,192.467 31.167 C 192.393 31.167,192.333 31.429,192.333 31.750 M364.626 34.702 C 364.583 34.996,364.605 35.427,364.676 35.660 C 364.773 35.978,364.808 35.845,364.819 35.125 C 364.835 34.067,364.747 33.875,364.626 34.702 M32.875 34.448 C 33.035 34.490,33.298 34.490,33.458 34.448 C 33.619 34.406,33.487 34.372,33.167 34.372 C 32.846 34.372,32.715 34.406,32.875 34.448 M213.768 38.750 C 213.905 39.363,214.001 39.496,213.997 39.069 C 213.996 38.894,213.919 38.637,213.826 38.500 C 213.702 38.317,213.687 38.385,213.768 38.750 M249.458 43.344 C 249.665 43.424,250.002 43.426,250.208 43.349 C 250.506 43.238,250.428 43.208,249.833 43.204 C 249.234 43.199,249.159 43.228,249.458 43.344 M391.666 45.633 L 391.749 48.083 391.796 45.763 C 391.822 44.487,391.785 43.384,391.713 43.313 C 391.642 43.241,391.621 44.285,391.666 45.633 M336.898 45.833 C 336.898 46.979,336.924 47.448,336.957 46.875 C 336.989 46.302,336.989 45.365,336.957 44.792 C 336.924 44.219,336.898 44.688,336.898 45.833 M32.761 46.518 C 32.872 46.698,33.500 46.718,33.500 46.542 C 33.500 46.473,33.313 46.406,33.084 46.393 C 32.856 46.380,32.710 46.436,32.761 46.518 M369.167 48.524 C 369.167 48.602,369.392 48.667,369.667 48.667 C 370.319 48.667,370.318 48.422,369.666 48.399 C 369.391 48.389,369.167 48.445,369.167 48.524 M16.262 52.095 C 16.085 52.224,15.973 52.362,16.012 52.401 C 16.052 52.441,16.228 52.367,16.405 52.238 C 16.581 52.109,16.694 51.971,16.654 51.932 C 16.615 51.893,16.438 51.966,16.262 52.095 M37.105 57.632 C 37.060 57.705,37.166 57.775,37.342 57.788 C 37.517 57.801,37.704 57.742,37.757 57.656 C 37.810 57.570,37.703 57.500,37.520 57.500 C 37.336 57.500,37.150 57.559,37.105 57.632 " stroke="none" fill="#040404" fill-rule="evenodd"></path><path id="path3" d="M38.929 9.167 C 38.991 9.579,39.115 9.964,39.205 10.021 C 39.297 10.080,39.320 10.370,39.258 10.688 C 39.178 11.089,39.194 11.180,39.314 11.005 C 39.459 10.793,39.497 10.799,39.592 11.046 C 39.853 11.727,39.611 11.821,37.466 11.870 L 35.417 11.917 36.250 12.184 L 37.083 12.452 37.053 14.159 C 37.023 15.864,36.934 16.266,36.681 15.856 C 36.578 15.690,36.445 15.733,36.110 16.044 L 35.672 16.450 37.445 16.558 C 38.421 16.618,40.538 16.653,42.151 16.637 C 44.197 16.616,44.706 16.578,43.833 16.512 C 42.915 16.442,42.683 16.381,42.957 16.281 C 43.573 16.057,43.877 15.671,43.652 15.399 C 43.511 15.230,43.509 15.107,43.642 14.946 C 43.776 14.785,43.773 14.673,43.629 14.529 C 43.484 14.384,43.482 14.285,43.621 14.146 C 43.747 14.020,43.758 13.824,43.655 13.554 C 43.313 12.653,43.298 12.117,43.619 12.249 C 43.783 12.316,44.048 12.409,44.208 12.455 C 44.369 12.501,44.500 12.605,44.500 12.686 C 44.500 12.767,44.612 12.833,44.750 12.833 C 44.887 12.833,45.000 12.908,45.000 13.000 C 45.000 13.092,45.112 13.167,45.250 13.167 C 45.387 13.167,45.496 13.110,45.491 13.042 C 45.484 12.937,43.075 11.327,42.839 11.269 C 42.796 11.259,42.579 11.081,42.356 10.875 C 42.133 10.669,41.845 10.500,41.716 10.500 C 41.586 10.500,41.527 10.425,41.583 10.333 C 41.640 10.242,41.607 10.157,41.510 10.146 C 41.413 10.134,41.256 10.116,41.161 10.104 C 41.066 10.093,40.927 9.986,40.854 9.866 C 40.780 9.747,40.651 9.662,40.568 9.678 C 40.238 9.740,39.985 9.659,40.072 9.519 C 40.122 9.438,40.006 9.330,39.815 9.280 C 39.598 9.223,39.513 9.114,39.590 8.990 C 39.668 8.863,39.629 8.819,39.482 8.868 C 39.354 8.911,39.153 8.827,39.034 8.681 C 38.853 8.459,38.836 8.538,38.929 9.167 M36.500 13.917 C 36.500 14.198,36.576 14.336,36.708 14.292 C 36.823 14.253,36.917 14.085,36.917 13.917 C 36.917 13.749,36.823 13.580,36.708 13.542 C 36.576 13.498,36.500 13.635,36.500 13.917 M44.857 19.815 C 44.700 19.915,44.687 19.993,44.816 20.072 C 44.917 20.135,45.000 20.107,45.000 20.010 C 45.000 19.899,45.515 19.835,46.375 19.839 C 47.540 19.843,47.706 19.877,47.464 20.061 C 47.186 20.272,47.185 20.957,47.461 21.405 C 47.521 21.503,47.361 21.446,47.104 21.278 C 46.848 21.111,46.609 21.002,46.573 21.038 C 46.473 21.138,47.460 22.167,47.657 22.167 C 47.754 22.167,47.815 22.260,47.792 22.375 C 47.769 22.490,47.844 22.565,47.958 22.542 C 48.073 22.519,48.173 22.631,48.180 22.792 C 48.188 22.963,48.227 22.998,48.277 22.876 C 48.339 22.722,48.426 22.735,48.621 22.930 C 48.912 23.222,49.207 22.967,49.051 22.558 C 48.835 21.997,48.920 20.169,49.167 20.055 C 49.493 19.905,47.951 19.704,46.333 19.686 C 45.646 19.678,44.982 19.736,44.857 19.815 M45.667 20.583 C 45.882 20.813,46.138 21.000,46.236 21.000 C 46.333 21.000,46.211 20.813,45.964 20.583 C 45.717 20.354,45.461 20.167,45.395 20.167 C 45.329 20.167,45.451 20.354,45.667 20.583 M12.406 23.542 L 11.917 24.083 12.458 23.594 C 12.963 23.138,13.077 23.000,12.948 23.000 C 12.919 23.000,12.675 23.244,12.406 23.542 M10.597 25.424 C 10.238 25.741,9.976 26.029,10.014 26.064 C 10.052 26.100,10.383 25.838,10.750 25.482 C 11.575 24.682,11.479 24.645,10.597 25.424 M9.755 26.716 C 9.684 26.880,9.672 27.061,9.729 27.118 C 9.899 27.288,10.035 27.050,9.957 26.721 C 9.888 26.430,9.879 26.430,9.755 26.716 M8.833 30.343 C 8.833 30.763,8.898 30.980,9.004 30.914 C 9.201 30.793,9.166 29.667,8.966 29.667 C 8.893 29.667,8.833 29.971,8.833 30.343 M53.396 31.750 C 53.396 32.758,53.424 33.149,53.457 32.619 C 53.490 32.088,53.490 31.263,53.456 30.786 C 53.422 30.308,53.395 30.742,53.396 31.750 M57.833 30.833 C 57.833 31.108,57.910 31.333,58.003 31.333 C 58.096 31.333,58.155 31.108,58.134 30.833 C 58.113 30.558,58.037 30.333,57.965 30.333 C 57.892 30.333,57.833 30.558,57.833 30.833 M8.500 34.250 C 8.500 34.387,8.575 34.500,8.667 34.500 C 8.758 34.500,8.833 34.387,8.833 34.250 C 8.833 34.112,8.758 34.000,8.667 34.000 C 8.575 34.000,8.500 34.112,8.500 34.250 M53.000 34.250 C 53.000 34.387,53.075 34.500,53.167 34.500 C 53.258 34.500,53.333 34.387,53.333 34.250 C 53.333 34.112,53.258 34.000,53.167 34.000 C 53.075 34.000,53.000 34.112,53.000 34.250 M13.755 34.549 C 13.684 34.713,13.672 34.894,13.729 34.952 C 13.899 35.121,14.035 34.883,13.957 34.555 C 13.888 34.264,13.879 34.263,13.755 34.549 M58.167 34.750 C 58.167 34.887,58.242 35.000,58.333 35.000 C 58.425 35.000,58.500 34.887,58.500 34.750 C 58.500 34.612,58.425 34.500,58.333 34.500 C 58.242 34.500,58.167 34.612,58.167 34.750 M13.548 35.917 C 13.549 36.375,13.581 36.543,13.620 36.289 C 13.658 36.036,13.657 35.661,13.617 35.456 C 13.578 35.251,13.546 35.458,13.548 35.917 M8.833 38.333 C 8.833 38.700,8.908 39.000,9.000 39.000 C 9.092 39.000,9.167 38.700,9.167 38.333 C 9.167 37.967,9.092 37.667,9.000 37.667 C 8.908 37.667,8.833 37.967,8.833 38.333 M13.545 38.833 C 13.545 39.246,13.578 39.415,13.618 39.208 C 13.657 39.002,13.657 38.665,13.618 38.458 C 13.578 38.252,13.545 38.421,13.545 38.833 M57.833 38.861 C 57.833 39.243,57.887 39.502,57.953 39.436 C 58.124 39.265,58.141 38.167,57.973 38.167 C 57.896 38.167,57.833 38.479,57.833 38.861 M9.333 40.740 C 9.333 40.872,9.408 41.027,9.500 41.083 C 9.592 41.140,9.667 41.032,9.667 40.843 C 9.667 40.654,9.592 40.500,9.500 40.500 C 9.408 40.500,9.333 40.608,9.333 40.740 M9.669 41.458 C 9.677 41.824,9.995 42.066,9.997 41.708 C 9.999 41.502,9.925 41.333,9.833 41.333 C 9.742 41.333,9.668 41.390,9.669 41.458 M17.977 45.667 C 17.849 46.019,17.905 49.045,18.044 49.270 C 18.136 49.418,19.956 49.642,21.833 49.737 C 21.971 49.744,22.107 49.581,22.137 49.375 C 22.166 49.168,22.102 49.000,21.994 49.000 C 21.886 49.000,21.841 49.112,21.894 49.250 C 21.998 49.522,20.840 49.585,20.006 49.352 C 19.440 49.194,19.355 47.646,19.917 47.733 C 20.100 47.762,20.156 47.753,20.042 47.713 C 19.927 47.674,19.833 47.585,19.833 47.515 C 19.833 47.297,18.334 45.856,18.317 46.058 C 18.308 46.164,18.248 46.063,18.184 45.833 C 18.101 45.536,18.042 45.488,17.977 45.667 M18.678 52.226 C 18.730 52.282,19.705 52.376,20.845 52.434 C 23.455 52.567,23.450 52.563,23.447 54.420 C 23.446 55.197,23.382 55.833,23.306 55.833 C 23.043 55.833,23.167 56.260,23.500 56.500 C 23.683 56.632,23.833 56.837,23.833 56.955 C 23.833 57.184,23.403 57.005,22.804 56.527 C 22.650 56.404,22.409 56.329,22.268 56.360 C 21.928 56.435,25.056 58.667,25.500 58.667 C 25.685 58.667,25.833 58.778,25.833 58.917 C 25.833 59.147,26.039 59.244,26.392 59.181 C 26.470 59.167,26.685 59.327,26.869 59.536 C 27.053 59.745,27.270 59.898,27.351 59.875 C 27.433 59.852,27.500 59.946,27.500 60.083 C 27.500 60.222,27.648 60.333,27.833 60.333 C 28.198 60.333,28.242 60.211,28.009 59.842 C 27.916 59.695,27.919 59.485,28.015 59.304 C 28.144 59.064,28.121 59.028,27.898 59.114 C 27.668 59.202,27.634 59.132,27.697 58.700 C 27.747 58.364,27.696 58.150,27.554 58.095 C 27.061 57.906,27.343 57.532,28.042 57.450 C 29.717 57.251,30.496 56.750,29.808 56.314 C 29.642 56.209,29.637 56.171,29.792 56.169 C 29.906 56.168,30.000 56.032,30.000 55.867 C 30.000 55.702,29.906 55.471,29.792 55.355 C 29.625 55.185,29.664 55.077,29.991 54.810 C 30.215 54.627,30.328 54.426,30.241 54.363 C 29.888 54.109,29.686 53.547,29.879 53.355 C 30.018 53.215,30.015 53.167,29.867 53.167 C 29.757 53.167,29.667 53.092,29.667 53.000 C 29.667 52.908,29.723 52.842,29.792 52.853 C 29.860 52.864,30.104 52.854,30.333 52.831 C 30.563 52.808,30.113 52.687,29.333 52.562 C 27.906 52.333,18.501 52.037,18.678 52.226 M37.083 52.333 C 37.140 52.425,37.407 52.500,37.677 52.500 C 37.946 52.500,38.167 52.425,38.167 52.333 C 38.167 52.242,37.900 52.167,37.573 52.167 C 37.220 52.167,37.022 52.234,37.083 52.333 M20.565 55.423 C 20.706 55.563,20.880 55.690,20.952 55.705 C 21.024 55.719,21.228 55.866,21.405 56.031 C 21.581 56.195,21.759 56.297,21.799 56.256 C 21.893 56.162,21.543 55.826,20.964 55.456 C 20.405 55.098,20.226 55.083,20.565 55.423 M29.125 57.791 C 29.881 57.822,31.119 57.822,31.875 57.791 C 32.631 57.760,32.012 57.735,30.500 57.735 C 28.988 57.735,28.369 57.760,29.125 57.791 " stroke="none" fill="#5c5c5c" fill-rule="evenodd"></path><path id="path4" d="M39.000 10.417 C 39.000 10.554,39.075 10.667,39.167 10.667 C 39.258 10.667,39.333 10.554,39.333 10.417 C 39.333 10.279,39.258 10.167,39.167 10.167 C 39.075 10.167,39.000 10.279,39.000 10.417 M39.336 11.218 C 39.334 11.384,39.258 11.473,39.167 11.417 C 39.075 11.360,39.000 11.393,39.000 11.490 C 39.000 11.587,39.150 11.667,39.333 11.667 C 39.702 11.667,39.743 11.543,39.500 11.167 C 39.363 10.955,39.338 10.963,39.336 11.218 M30.127 11.537 C 30.089 11.649,29.734 11.819,29.337 11.916 C 28.586 12.099,28.097 12.573,28.429 12.796 C 28.773 13.028,28.846 13.571,28.640 14.376 C 28.474 15.022,28.474 15.214,28.638 15.316 C 28.753 15.387,28.796 15.570,28.735 15.730 C 28.665 15.912,28.739 16.102,28.937 16.253 C 29.221 16.467,29.164 16.493,28.333 16.526 C 27.578 16.556,27.665 16.579,28.833 16.656 C 30.560 16.771,35.196 16.647,34.250 16.512 C 33.659 16.427,33.201 16.029,33.715 16.046 C 34.319 16.066,34.641 15.974,34.724 15.758 C 34.782 15.608,34.736 15.548,34.603 15.599 C 34.485 15.644,34.389 15.569,34.389 15.433 C 34.389 15.297,34.461 15.200,34.549 15.218 C 34.636 15.235,34.746 15.146,34.792 15.018 C 34.840 14.887,34.802 14.833,34.704 14.894 C 34.598 14.959,34.565 14.872,34.618 14.667 C 34.679 14.434,34.624 14.333,34.433 14.333 C 34.228 14.333,34.185 14.233,34.261 13.932 C 34.316 13.712,34.281 13.380,34.182 13.196 C 34.070 12.987,34.063 12.839,34.164 12.805 C 34.465 12.702,34.138 12.001,33.772 11.967 C 33.577 11.948,34.279 11.887,35.333 11.830 C 37.101 11.735,37.005 11.725,34.083 11.703 C 32.342 11.690,30.818 11.677,30.698 11.673 C 30.579 11.670,30.527 11.592,30.583 11.500 C 30.640 11.408,30.576 11.333,30.440 11.333 C 30.305 11.333,30.164 11.425,30.127 11.537 M33.667 12.950 C 33.667 13.383,33.614 13.514,33.491 13.391 C 33.336 13.236,33.430 12.333,33.601 12.333 C 33.637 12.333,33.667 12.611,33.667 12.950 M35.003 13.597 C 35.004 13.773,35.081 14.029,35.174 14.167 C 35.298 14.349,35.313 14.282,35.232 13.917 C 35.095 13.304,34.999 13.171,35.003 13.597 M42.750 16.778 C 44.760 16.899,46.963 16.906,46.891 16.792 C 46.849 16.723,45.712 16.681,44.365 16.697 C 43.018 16.714,42.292 16.751,42.750 16.778 M45.750 19.500 C 45.807 19.592,46.430 19.661,47.135 19.655 C 48.006 19.647,48.310 19.597,48.083 19.500 C 47.603 19.294,45.623 19.294,45.750 19.500 M51.000 19.675 C 51.000 19.788,50.629 19.819,49.958 19.764 C 49.385 19.717,49.055 19.721,49.224 19.771 C 49.440 19.836,49.504 19.968,49.439 20.215 C 49.389 20.408,49.418 20.651,49.504 20.754 C 49.601 20.872,49.600 21.150,49.502 21.493 C 49.402 21.842,49.403 22.152,49.506 22.344 C 49.730 22.763,49.707 23.726,49.467 23.967 C 49.311 24.122,49.313 24.167,49.477 24.167 C 49.592 24.167,49.644 24.235,49.592 24.319 C 49.540 24.403,49.555 24.497,49.624 24.527 C 49.693 24.558,49.873 24.803,50.024 25.071 C 50.689 26.256,50.833 25.849,50.833 22.787 C 50.833 20.180,50.856 19.964,51.093 20.260 C 51.348 20.578,51.349 20.578,51.198 20.250 C 51.114 20.067,51.079 19.823,51.120 19.708 C 51.161 19.594,51.151 19.500,51.097 19.500 C 51.044 19.500,51.000 19.579,51.000 19.675 M8.628 31.826 C 8.513 32.236,8.582 32.474,8.763 32.292 C 8.817 32.239,8.834 32.020,8.802 31.806 L 8.743 31.417 8.628 31.826 M58.167 32.583 C 58.167 32.721,58.242 32.833,58.333 32.833 C 58.425 32.833,58.500 32.721,58.500 32.583 C 58.500 32.446,58.425 32.333,58.333 32.333 C 58.242 32.333,58.167 32.446,58.167 32.583 M53.147 33.464 C 53.092 33.795,53.116 33.950,53.209 33.858 C 53.293 33.774,53.334 33.528,53.300 33.311 C 53.247 32.977,53.224 33.001,53.147 33.464 M8.500 33.677 C 8.500 33.865,8.575 33.973,8.667 33.917 C 8.758 33.860,8.833 33.706,8.833 33.573 C 8.833 33.441,8.758 33.333,8.667 33.333 C 8.575 33.333,8.500 33.488,8.500 33.677 M8.537 34.929 C 8.519 35.151,8.578 35.333,8.669 35.333 C 8.864 35.333,8.892 34.722,8.702 34.605 C 8.630 34.561,8.556 34.706,8.537 34.929 M13.705 35.500 C 13.705 35.821,13.740 35.952,13.782 35.792 C 13.823 35.631,13.823 35.369,13.782 35.208 C 13.740 35.048,13.705 35.179,13.705 35.500 M58.167 35.510 C 58.167 35.699,58.242 35.807,58.333 35.750 C 58.425 35.693,58.500 35.539,58.500 35.407 C 58.500 35.275,58.425 35.167,58.333 35.167 C 58.242 35.167,58.167 35.321,58.167 35.510 M8.574 36.348 C 8.513 36.448,8.546 36.613,8.648 36.715 C 8.784 36.851,8.833 36.803,8.833 36.533 C 8.833 36.131,8.747 36.069,8.574 36.348 M15.994 43.083 C 15.946 43.817,16.027 48.038,16.098 48.500 C 16.185 49.065,16.179 49.073,15.905 48.750 C 15.654 48.454,15.634 48.451,15.728 48.722 C 15.786 48.890,15.836 49.190,15.839 49.389 C 15.844 49.742,15.849 49.743,16.089 49.426 C 16.223 49.249,16.333 49.192,16.333 49.301 C 16.333 49.415,16.568 49.500,16.879 49.500 L 17.425 49.500 17.391 47.587 C 17.373 46.535,17.314 45.604,17.261 45.517 C 17.207 45.431,17.282 45.242,17.427 45.097 C 17.572 44.952,17.619 44.833,17.531 44.833 C 17.443 44.833,17.246 44.569,17.093 44.246 C 16.927 43.897,16.739 43.705,16.629 43.773 C 16.512 43.845,16.479 43.795,16.540 43.637 C 16.593 43.499,16.569 43.281,16.487 43.152 C 16.362 42.953,16.338 42.956,16.333 43.167 C 16.329 43.389,16.310 43.389,16.167 43.167 C 16.078 43.029,16.000 42.992,15.994 43.083 M40.917 52.167 C 40.707 52.257,40.676 52.310,40.833 52.310 C 40.971 52.310,41.233 52.245,41.417 52.167 C 41.627 52.076,41.658 52.023,41.500 52.023 C 41.362 52.023,41.100 52.088,40.917 52.167 M29.667 52.327 C 29.667 52.420,29.798 52.485,29.958 52.472 C 31.348 52.355,32.000 52.501,32.000 52.929 C 32.000 53.411,32.345 53.833,32.738 53.833 C 33.094 53.833,33.067 54.035,32.667 54.378 C 32.377 54.626,32.333 54.629,32.333 54.405 C 32.333 54.263,32.253 54.197,32.154 54.258 C 32.039 54.329,32.110 54.512,32.350 54.768 C 32.615 55.050,32.655 55.167,32.487 55.169 C 32.290 55.171,32.288 55.196,32.477 55.316 C 32.661 55.432,32.663 55.473,32.486 55.532 C 32.322 55.587,32.358 55.751,32.634 56.197 C 33.296 57.268,33.175 57.339,30.417 57.507 L 28.417 57.629 31.029 57.601 C 32.465 57.586,33.605 57.632,33.561 57.704 C 33.516 57.775,34.254 57.820,35.198 57.803 L 36.917 57.773 35.667 57.667 C 34.918 57.603,34.685 57.548,35.084 57.530 C 35.452 57.514,35.990 57.432,36.281 57.348 C 36.710 57.225,36.829 57.249,36.917 57.473 C 37.015 57.727,37.042 57.725,37.243 57.452 C 37.509 57.091,38.500 56.766,38.500 57.039 C 38.500 57.140,38.542 57.180,38.593 57.129 C 38.644 57.078,38.569 56.756,38.426 56.414 C 38.108 55.653,38.106 55.707,38.458 55.613 C 38.705 55.547,38.693 55.517,38.375 55.415 C 37.985 55.290,37.892 55.087,38.151 54.927 C 38.631 54.630,38.219 52.917,37.649 52.841 C 37.154 52.775,37.198 52.752,38.000 52.660 L 38.917 52.554 37.802 52.527 C 37.188 52.512,36.644 52.432,36.593 52.349 C 36.460 52.133,29.667 52.111,29.667 52.327 M32.723 52.862 C 32.775 53.061,32.779 53.286,32.732 53.362 C 32.558 53.643,32.369 53.485,32.298 53.000 C 32.212 52.414,32.575 52.296,32.723 52.862 " stroke="none" fill="#646c68" fill-rule="evenodd"></path><path id="path5" d="M38.627 11.785 C 38.834 11.824,39.134 11.823,39.294 11.781 C 39.453 11.739,39.283 11.707,38.917 11.709 C 38.550 11.711,38.420 11.745,38.627 11.785 M33.775 11.949 C 34.142 12.021,34.453 12.706,34.164 12.805 C 34.063 12.839,34.070 12.987,34.182 13.196 C 34.281 13.380,34.316 13.712,34.261 13.932 C 34.185 14.233,34.228 14.333,34.433 14.333 C 34.624 14.333,34.679 14.434,34.618 14.667 C 34.565 14.872,34.598 14.959,34.704 14.894 C 34.802 14.833,34.840 14.887,34.792 15.018 C 34.746 15.146,34.636 15.235,34.549 15.218 C 34.461 15.200,34.389 15.297,34.389 15.433 C 34.389 15.569,34.485 15.644,34.603 15.599 C 34.736 15.548,34.782 15.608,34.724 15.758 C 34.642 15.971,34.341 16.060,33.736 16.049 C 33.637 16.048,33.556 16.143,33.556 16.261 C 33.556 16.512,35.718 16.731,37.167 16.627 C 38.004 16.567,37.977 16.559,36.851 16.531 L 35.618 16.500 36.082 16.070 C 36.437 15.741,36.578 15.690,36.681 15.856 C 36.934 16.266,37.023 15.865,37.053 14.172 L 37.083 12.477 36.167 12.161 C 35.655 11.984,34.845 11.852,34.333 11.861 C 33.829 11.871,33.578 11.910,33.775 11.949 M33.426 12.774 C 33.364 13.017,33.394 13.294,33.491 13.391 C 33.614 13.514,33.667 13.383,33.667 12.950 C 33.667 12.224,33.579 12.161,33.426 12.774 M35.232 13.917 C 35.313 14.282,35.298 14.349,35.174 14.167 C 35.081 14.029,35.004 13.773,35.003 13.597 C 34.999 13.171,35.095 13.304,35.232 13.917 M36.917 13.917 C 36.917 14.085,36.823 14.253,36.708 14.292 C 36.576 14.336,36.500 14.198,36.500 13.917 C 36.500 13.635,36.576 13.498,36.708 13.542 C 36.823 13.580,36.917 13.749,36.917 13.917 M44.931 19.522 C 44.970 19.586,44.945 19.670,44.876 19.708 C 44.807 19.747,44.850 19.753,44.972 19.723 C 45.094 19.692,45.350 19.667,45.541 19.667 C 45.733 19.667,45.838 19.616,45.777 19.554 C 45.627 19.404,44.839 19.375,44.931 19.522 M49.167 20.047 C 48.947 20.225,48.842 21.847,49.003 22.583 C 49.088 22.974,48.985 23.150,48.729 23.052 C 48.484 22.958,48.485 22.989,48.739 23.377 C 49.417 24.411,50.111 23.475,49.506 22.344 C 49.403 22.152,49.402 21.842,49.502 21.493 C 49.600 21.150,49.601 20.872,49.504 20.754 C 49.418 20.651,49.390 20.401,49.443 20.200 C 49.552 19.783,49.516 19.763,49.167 20.047 M17.295 45.198 C 17.259 45.307,17.275 45.701,17.330 46.073 C 17.386 46.445,17.416 47.267,17.397 47.898 C 17.355 49.261,17.426 49.500,17.872 49.500 C 18.113 49.500,18.163 49.441,18.050 49.292 C 17.964 49.177,17.902 48.245,17.913 47.220 C 17.925 46.059,17.871 45.393,17.771 45.455 C 17.678 45.512,17.655 45.437,17.716 45.277 C 17.784 45.101,17.739 45.000,17.592 45.000 C 17.465 45.000,17.331 45.089,17.295 45.198 M18.958 49.618 C 19.165 49.657,19.502 49.657,19.708 49.618 C 19.915 49.578,19.746 49.545,19.333 49.545 C 18.921 49.545,18.752 49.578,18.958 49.618 M16.458 49.787 C 16.756 49.824,17.244 49.824,17.542 49.787 C 17.840 49.750,17.596 49.720,17.000 49.720 C 16.404 49.720,16.160 49.750,16.458 49.787 M26.417 52.271 C 26.692 52.301,27.764 52.412,28.799 52.517 C 30.650 52.705,30.991 52.796,30.112 52.869 C 29.680 52.905,29.464 53.167,29.867 53.167 C 30.015 53.167,30.018 53.215,29.879 53.355 C 29.686 53.547,29.888 54.109,30.241 54.363 C 30.328 54.426,30.215 54.627,29.991 54.810 C 29.664 55.077,29.625 55.185,29.792 55.355 C 29.906 55.471,30.000 55.702,30.000 55.867 C 30.000 56.032,29.906 56.168,29.792 56.169 C 29.637 56.171,29.642 56.209,29.808 56.314 C 30.206 56.566,29.953 57.062,29.366 57.182 C 28.335 57.393,28.610 57.500,30.181 57.499 C 32.825 57.498,33.288 57.255,32.643 56.211 C 32.369 55.768,32.334 55.602,32.495 55.503 C 32.660 55.401,32.656 55.355,32.477 55.283 C 32.292 55.210,32.294 55.191,32.487 55.180 C 32.658 55.170,32.620 55.055,32.350 54.768 C 32.110 54.512,32.039 54.329,32.154 54.258 C 32.253 54.197,32.333 54.263,32.333 54.405 C 32.333 54.629,32.377 54.626,32.667 54.378 C 33.067 54.035,33.094 53.833,32.738 53.833 C 32.345 53.833,32.000 53.411,32.000 52.929 C 32.000 52.501,31.348 52.355,29.958 52.472 C 29.798 52.485,29.667 52.422,29.667 52.331 C 29.667 52.231,28.932 52.176,27.792 52.192 C 26.760 52.205,26.142 52.241,26.417 52.271 M36.583 52.333 C 36.640 52.425,36.799 52.500,36.936 52.500 C 37.074 52.500,37.140 52.425,37.083 52.333 C 37.027 52.242,36.868 52.167,36.730 52.167 C 36.593 52.167,36.527 52.242,36.583 52.333 M32.298 53.000 C 32.369 53.485,32.558 53.643,32.732 53.362 C 32.871 53.138,32.645 52.500,32.426 52.500 C 32.297 52.500,32.251 52.679,32.298 53.000 M27.333 57.740 C 27.333 57.872,27.407 58.026,27.498 58.082 C 27.589 58.138,27.625 58.084,27.578 57.962 C 27.521 57.815,27.645 57.727,27.941 57.703 C 28.630 57.646,28.632 57.500,27.944 57.500 C 27.523 57.500,27.333 57.575,27.333 57.740 M26.333 59.293 C 26.333 59.363,26.483 59.513,26.667 59.628 C 27.054 59.870,27.106 59.749,26.762 59.405 C 26.499 59.142,26.333 59.099,26.333 59.293 " stroke="none" fill="#64646c" fill-rule="evenodd"></path><path id="path6" d="M43.412 12.638 C 43.461 12.919,43.571 13.331,43.655 13.554 C 43.757 13.820,43.747 14.019,43.628 14.138 C 43.498 14.268,43.501 14.383,43.636 14.547 C 43.777 14.717,43.777 14.823,43.636 14.964 C 43.499 15.101,43.497 15.212,43.631 15.374 C 43.862 15.653,43.714 15.884,43.098 16.203 C 42.635 16.443,42.713 16.460,44.848 16.590 C 46.077 16.665,47.121 16.735,47.167 16.746 C 47.212 16.757,47.422 16.825,47.633 16.897 C 47.876 16.980,48.109 16.950,48.271 16.816 C 48.478 16.644,48.552 16.648,48.667 16.833 C 48.783 17.022,48.854 17.024,49.070 16.845 C 49.214 16.725,49.482 16.667,49.666 16.715 C 49.850 16.763,49.962 16.739,49.914 16.663 C 49.867 16.586,49.913 16.471,50.016 16.407 C 50.119 16.343,50.266 16.392,50.343 16.515 C 50.419 16.639,50.532 16.690,50.594 16.628 C 50.761 16.461,50.238 16.000,49.882 16.000 C 49.712 16.000,49.465 15.850,49.333 15.667 C 49.201 15.483,48.997 15.333,48.880 15.333 C 48.763 15.333,48.667 15.246,48.667 15.139 C 48.667 15.032,48.618 14.993,48.559 15.053 C 48.499 15.112,48.305 14.993,48.128 14.789 C 47.950 14.584,47.737 14.407,47.653 14.396 C 47.569 14.384,47.462 14.356,47.417 14.333 C 47.322 14.286,47.229 14.253,46.724 14.087 C 46.526 14.022,46.325 13.819,46.277 13.634 C 46.228 13.450,46.114 13.346,46.023 13.403 C 45.931 13.459,45.809 13.429,45.752 13.336 C 45.694 13.243,45.501 13.167,45.323 13.167 C 45.146 13.167,45.000 13.092,45.000 13.000 C 45.000 12.908,44.887 12.833,44.750 12.833 C 44.612 12.833,44.500 12.767,44.500 12.686 C 44.500 12.605,44.369 12.501,44.208 12.455 C 44.048 12.409,43.783 12.316,43.619 12.249 C 43.362 12.143,43.334 12.196,43.412 12.638 M28.375 16.782 C 28.535 16.823,28.798 16.823,28.958 16.782 C 29.119 16.740,28.988 16.705,28.667 16.705 C 28.346 16.705,28.215 16.740,28.375 16.782 M51.167 19.580 C 51.167 19.682,51.472 19.728,51.917 19.693 C 52.387 19.655,52.667 19.701,52.667 19.817 C 52.667 19.917,52.758 20.000,52.869 20.000 C 53.004 20.000,52.986 19.914,52.814 19.742 C 52.520 19.449,51.167 19.315,51.167 19.580 M46.118 20.073 C 45.932 20.258,45.830 20.267,45.665 20.114 C 45.496 19.958,45.480 19.969,45.590 20.167 C 45.667 20.304,45.884 20.529,46.073 20.666 C 46.601 21.049,47.541 21.535,47.440 21.372 C 47.183 20.955,47.195 20.265,47.464 20.061 C 47.714 19.872,47.661 19.843,47.054 19.839 C 46.664 19.836,46.252 19.939,46.118 20.073 M55.500 24.083 C 55.500 24.221,55.575 24.333,55.667 24.333 C 55.758 24.333,55.833 24.221,55.833 24.083 C 55.833 23.946,55.758 23.833,55.667 23.833 C 55.575 23.833,55.500 23.946,55.500 24.083 M56.263 25.583 C 56.365 26.105,56.453 26.270,56.568 26.153 C 56.605 26.115,56.530 25.858,56.400 25.583 L 56.165 25.083 56.263 25.583 M10.660 25.591 C 10.543 25.733,10.365 25.817,10.265 25.779 C 10.164 25.740,10.068 25.922,10.048 26.188 C 10.029 26.451,10.085 26.667,10.173 26.667 C 10.261 26.667,10.333 26.540,10.333 26.386 C 10.333 26.231,10.496 25.931,10.696 25.719 C 10.895 25.507,11.017 25.333,10.966 25.333 C 10.916 25.333,10.778 25.449,10.660 25.591 M9.631 27.667 C 9.671 27.942,9.629 28.167,9.537 28.167 C 9.445 28.167,9.332 28.410,9.287 28.708 C 9.241 29.006,9.161 29.424,9.109 29.636 C 9.046 29.895,9.081 30.001,9.216 29.956 C 9.326 29.920,9.464 29.559,9.522 29.153 C 9.579 28.748,9.710 28.155,9.813 27.834 C 10.042 27.120,10.045 27.167,9.779 27.167 C 9.628 27.167,9.581 27.325,9.631 27.667 M56.958 27.777 C 57.073 27.823,57.167 28.113,57.167 28.421 C 57.167 28.729,57.242 29.027,57.333 29.083 C 57.425 29.140,57.500 29.440,57.500 29.750 C 57.500 30.060,57.575 30.360,57.667 30.417 C 57.758 30.473,57.833 30.436,57.833 30.333 C 57.833 30.229,57.925 30.202,58.042 30.272 C 58.201 30.368,58.206 30.341,58.063 30.157 C 57.961 30.025,57.826 29.635,57.764 29.292 C 57.702 28.948,57.580 28.667,57.492 28.667 C 57.405 28.667,57.333 28.442,57.333 28.167 C 57.333 27.797,57.258 27.670,57.042 27.680 C 56.867 27.688,56.834 27.727,56.958 27.777 M14.546 29.337 C 14.532 29.522,14.591 29.630,14.677 29.577 C 14.866 29.460,14.886 29.000,14.702 29.000 C 14.630 29.000,14.560 29.152,14.546 29.337 M8.892 31.038 C 8.807 31.154,8.780 31.550,8.832 31.917 L 8.927 32.583 9.059 31.776 C 9.200 30.921,9.147 30.689,8.892 31.038 M57.943 32.125 C 57.999 32.560,58.045 33.179,58.044 33.500 C 58.043 33.821,58.081 33.971,58.127 33.833 C 58.174 33.696,58.284 33.443,58.372 33.272 C 58.485 33.052,58.479 32.993,58.350 33.073 C 58.227 33.149,58.168 32.948,58.169 32.468 C 58.171 31.943,58.215 31.817,58.333 32.000 C 58.422 32.137,58.494 32.175,58.492 32.083 C 58.489 31.882,58.088 31.333,57.943 31.333 C 57.887 31.333,57.886 31.690,57.943 32.125 M8.888 34.250 C 8.889 34.892,8.919 35.134,8.955 34.788 C 8.991 34.442,8.990 33.917,8.954 33.621 C 8.917 33.325,8.887 33.608,8.888 34.250 M13.867 33.867 C 13.634 34.100,13.594 34.565,13.819 34.425 C 13.903 34.374,14.010 34.425,14.056 34.541 C 14.102 34.656,14.146 34.506,14.154 34.208 C 14.168 33.604,14.151 33.583,13.867 33.867 M53.000 34.750 C 53.000 34.887,53.075 35.000,53.167 35.000 C 53.258 35.000,53.333 34.887,53.333 34.750 C 53.333 34.612,53.258 34.500,53.167 34.500 C 53.075 34.500,53.000 34.612,53.000 34.750 M58.047 35.833 C 58.053 36.063,58.002 36.681,57.933 37.208 C 57.850 37.856,57.867 38.167,57.988 38.167 C 58.184 38.167,58.215 38.011,58.172 37.219 C 58.156 36.928,58.226 36.534,58.327 36.344 C 58.436 36.141,58.446 36.000,58.351 36.000 C 58.263 36.000,58.156 35.869,58.114 35.708 C 58.068 35.533,58.041 35.583,58.047 35.833 M8.864 37.134 C 8.886 37.427,8.965 37.667,9.039 37.667 C 9.113 37.667,9.124 37.460,9.063 37.208 C 8.905 36.550,8.817 36.516,8.864 37.134 M52.537 38.595 C 52.519 38.818,52.578 39.000,52.669 39.000 C 52.864 39.000,52.892 38.389,52.702 38.272 C 52.630 38.227,52.556 38.373,52.537 38.595 M57.605 38.875 C 57.449 39.459,57.482 40.167,57.667 40.167 C 57.758 40.167,57.833 39.792,57.833 39.333 C 57.833 38.429,57.763 38.287,57.605 38.875 M9.154 38.875 C 9.048 39.220,9.062 39.482,9.181 39.408 C 9.265 39.356,9.333 39.581,9.333 39.907 C 9.333 40.233,9.408 40.500,9.500 40.500 C 9.592 40.500,9.667 40.688,9.667 40.917 C 9.667 41.146,9.727 41.333,9.800 41.333 C 9.873 41.333,9.902 41.071,9.865 40.750 C 9.828 40.429,9.730 40.167,9.648 40.167 C 9.567 40.167,9.500 39.867,9.500 39.500 C 9.500 38.997,9.253 38.551,9.154 38.875 M57.259 40.708 C 57.085 41.278,57.024 42.000,57.150 42.000 C 57.356 42.000,57.604 41.644,57.717 41.184 C 57.832 40.714,57.575 40.929,57.439 41.417 C 57.388 41.600,57.384 41.469,57.431 41.125 C 57.511 40.534,57.397 40.258,57.259 40.708 M10.038 42.417 C 10.057 42.646,10.169 42.833,10.286 42.833 C 10.404 42.833,10.500 42.921,10.500 43.028 C 10.500 43.135,10.538 43.184,10.584 43.138 C 10.670 43.052,10.198 42.000,10.073 42.000 C 10.035 42.000,10.019 42.188,10.038 42.417 M51.195 42.350 C 50.887 42.843,51.024 42.880,51.383 42.400 C 51.547 42.180,51.622 42.000,51.548 42.000 C 51.474 42.000,51.315 42.157,51.195 42.350 M56.667 42.833 C 56.667 43.017,56.579 43.167,56.472 43.167 C 56.365 43.167,56.317 43.206,56.365 43.254 C 56.413 43.302,56.576 43.294,56.726 43.236 C 57.020 43.123,57.111 42.500,56.833 42.500 C 56.742 42.500,56.667 42.650,56.667 42.833 M19.764 47.393 C 19.822 47.544,19.805 47.667,19.726 47.667 C 19.334 47.667,19.595 49.238,20.006 49.352 C 21.082 49.652,21.959 49.527,21.874 49.085 C 21.831 48.857,21.736 48.707,21.663 48.752 C 21.590 48.798,21.405 48.786,21.251 48.727 C 21.029 48.642,21.017 48.592,21.194 48.479 C 21.363 48.372,21.367 48.333,21.208 48.315 C 21.094 48.302,20.925 48.273,20.833 48.250 C 20.742 48.227,20.573 48.198,20.458 48.185 C 20.313 48.169,20.326 48.112,20.500 48.000 C 20.692 47.876,20.635 47.837,20.250 47.833 C 19.923 47.830,19.825 47.781,19.966 47.691 C 20.139 47.582,20.129 47.510,19.921 47.337 C 19.699 47.153,19.675 47.161,19.764 47.393 M21.495 48.993 C 21.630 49.079,21.676 49.209,21.597 49.283 C 21.519 49.356,21.422 49.327,21.383 49.218 C 21.344 49.108,21.212 49.057,21.089 49.104 C 20.967 49.151,20.818 49.109,20.757 49.011 C 20.621 48.792,21.156 48.779,21.495 48.993 M16.333 52.476 C 16.333 52.672,16.437 52.833,16.563 52.833 C 16.689 52.833,16.889 52.949,17.006 53.091 C 17.124 53.233,17.324 53.308,17.452 53.259 C 17.580 53.211,17.641 53.239,17.589 53.324 C 17.475 53.509,18.162 54.022,18.360 53.900 C 18.437 53.852,18.500 53.898,18.500 54.000 C 18.500 54.102,18.559 54.150,18.631 54.105 C 18.704 54.060,19.014 54.281,19.321 54.595 C 19.629 54.910,20.038 55.169,20.232 55.172 C 20.665 55.178,21.206 55.567,21.039 55.752 C 20.972 55.826,21.014 55.830,21.134 55.761 C 21.266 55.685,21.470 55.773,21.653 55.985 C 21.820 56.176,22.111 56.333,22.301 56.333 C 22.491 56.333,22.690 56.404,22.743 56.489 C 22.797 56.575,23.063 56.757,23.337 56.893 C 23.922 57.185,24.043 56.892,23.500 56.500 C 23.167 56.260,23.043 55.833,23.306 55.833 C 23.382 55.833,23.446 55.197,23.447 54.420 C 23.450 52.605,23.405 52.564,21.250 52.441 C 20.333 52.388,18.852 52.294,17.958 52.231 C 16.372 52.120,16.333 52.126,16.333 52.476 M38.542 52.286 C 38.794 52.324,39.206 52.324,39.458 52.286 C 39.710 52.248,39.504 52.217,39.000 52.217 C 38.496 52.217,38.290 52.248,38.542 52.286 " stroke="none" fill="#4c5450" fill-rule="evenodd"></path><path id="path7" d="M49.714 16.439 C 50.005 16.781,50.003 16.788,49.609 16.712 C 49.387 16.670,49.155 16.717,49.093 16.818 C 49.018 16.939,49.225 17.000,49.712 17.000 C 50.572 17.000,50.744 16.886,50.401 16.544 C 50.263 16.406,50.105 16.339,50.049 16.395 C 49.993 16.451,49.828 16.405,49.682 16.293 C 49.492 16.147,49.501 16.188,49.714 16.439 M27.542 16.956 C 27.977 16.990,28.690 16.990,29.125 16.956 C 29.560 16.922,29.204 16.893,28.333 16.893 C 27.462 16.893,27.106 16.922,27.542 16.956 M51.875 19.782 C 52.035 19.823,52.298 19.823,52.458 19.782 C 52.619 19.740,52.487 19.705,52.167 19.705 C 51.846 19.705,51.715 19.740,51.875 19.782 M45.232 20.028 C 45.153 20.156,45.200 20.189,45.369 20.125 C 45.510 20.070,45.691 20.089,45.771 20.166 C 45.851 20.243,46.013 20.199,46.132 20.069 C 46.313 19.870,46.268 19.833,45.850 19.833 C 45.577 19.833,45.299 19.921,45.232 20.028 M53.167 20.557 C 53.167 20.674,53.300 20.916,53.464 21.094 C 54.189 21.883,54.562 22.696,54.352 23.032 C 54.241 23.209,54.198 23.503,54.256 23.684 C 54.421 24.205,54.457 29.051,54.298 29.375 C 54.209 29.557,54.220 29.667,54.326 29.667 C 54.437 29.667,54.465 30.152,54.405 31.042 C 54.355 31.798,54.324 32.567,54.336 32.750 C 54.372 33.264,54.373 34.371,54.339 34.833 C 54.322 35.063,54.312 35.737,54.317 36.333 C 54.322 36.929,54.324 37.529,54.320 37.667 C 54.317 37.804,54.350 38.214,54.394 38.577 C 54.438 38.941,54.402 39.372,54.314 39.536 C 54.227 39.699,54.217 39.833,54.292 39.833 C 54.501 39.833,54.536 41.791,54.329 41.919 C 54.204 41.997,54.209 42.100,54.346 42.265 C 54.495 42.445,54.492 42.558,54.333 42.750 C 54.200 42.910,54.190 43.000,54.305 43.000 C 54.420 43.000,54.461 43.358,54.420 43.997 L 54.355 44.993 54.791 44.589 C 55.031 44.366,55.289 44.222,55.364 44.269 C 55.439 44.315,55.500 44.234,55.500 44.089 C 55.500 43.944,55.680 43.757,55.899 43.673 C 56.119 43.590,56.338 43.423,56.386 43.302 C 56.456 43.129,56.512 43.135,56.654 43.333 C 56.790 43.523,56.808 43.453,56.729 43.042 C 56.666 42.714,56.693 42.500,56.797 42.500 C 56.891 42.500,57.022 42.106,57.086 41.625 C 57.151 41.144,57.261 40.675,57.331 40.583 C 57.401 40.492,57.502 40.042,57.557 39.583 C 57.612 39.125,57.735 38.337,57.831 37.833 C 58.012 36.886,58.066 32.799,57.909 31.917 C 57.861 31.642,57.797 31.209,57.768 30.955 C 57.739 30.701,57.667 30.445,57.608 30.385 C 57.548 30.326,57.500 30.032,57.500 29.732 C 57.500 29.432,57.425 29.140,57.333 29.083 C 57.242 29.027,57.167 28.722,57.167 28.407 C 57.167 28.091,57.102 27.833,57.023 27.833 C 56.944 27.833,56.915 27.646,56.959 27.417 C 57.009 27.154,56.963 27.000,56.833 27.000 C 56.704 27.000,56.657 26.846,56.707 26.583 C 56.758 26.319,56.711 26.167,56.580 26.167 C 56.373 26.167,56.163 25.640,56.181 25.167 C 56.187 25.002,56.239 25.030,56.333 25.250 C 56.464 25.555,56.478 25.557,56.488 25.276 C 56.495 25.103,56.355 24.931,56.167 24.882 C 55.983 24.834,55.833 24.691,55.833 24.564 C 55.833 24.437,55.754 24.333,55.656 24.333 C 55.559 24.333,55.492 24.202,55.509 24.042 C 55.525 23.881,55.520 23.694,55.498 23.625 C 55.426 23.398,55.375 23.169,55.352 22.958 C 55.335 22.813,55.279 22.826,55.167 23.000 C 55.029 23.214,55.005 23.208,55.003 22.958 C 55.001 22.798,54.926 22.667,54.837 22.667 C 54.747 22.667,54.623 22.460,54.562 22.208 C 54.501 21.956,54.229 21.549,53.958 21.303 C 53.688 21.058,53.511 20.784,53.565 20.696 C 53.620 20.607,53.553 20.492,53.416 20.439 C 53.275 20.385,53.167 20.436,53.167 20.557 M12.573 23.542 L 12.083 24.083 12.625 23.594 C 13.130 23.138,13.243 23.000,13.115 23.000 C 13.086 23.000,12.842 23.244,12.573 23.542 M12.166 24.584 C 11.759 25.018,11.391 25.153,11.602 24.792 C 11.669 24.677,11.561 24.727,11.361 24.902 C 11.161 25.077,11.033 25.256,11.077 25.299 C 11.120 25.342,10.970 25.523,10.744 25.701 C 10.518 25.879,10.333 26.169,10.333 26.345 C 10.333 26.522,10.273 26.667,10.200 26.667 C 10.064 26.667,9.719 27.931,9.563 29.000 C 9.516 29.321,9.434 29.696,9.382 29.833 C 9.330 29.971,9.272 30.196,9.255 30.333 C 9.237 30.471,9.167 31.013,9.099 31.539 C 9.032 32.065,8.907 32.538,8.821 32.591 C 8.726 32.650,8.731 32.808,8.833 32.999 C 9.096 33.490,9.041 35.269,8.754 35.555 C 8.552 35.758,8.548 35.816,8.734 35.888 C 8.872 35.940,8.964 36.245,8.970 36.668 C 8.977 37.216,8.927 37.341,8.731 37.266 C 8.582 37.209,8.526 37.241,8.592 37.347 C 8.651 37.443,8.805 37.482,8.934 37.433 C 9.139 37.354,9.284 38.088,9.186 38.708 C 9.176 38.777,9.242 38.833,9.333 38.833 C 9.425 38.833,9.500 39.133,9.500 39.500 C 9.500 39.867,9.565 40.167,9.645 40.167 C 9.725 40.167,9.841 40.545,9.902 41.007 C 9.963 41.469,10.155 42.099,10.328 42.408 C 10.515 42.741,10.604 43.121,10.546 43.344 C 10.478 43.603,10.507 43.682,10.640 43.600 C 10.763 43.524,10.833 43.606,10.833 43.823 C 10.833 44.012,10.917 44.167,11.019 44.167 C 11.123 44.167,11.167 44.314,11.118 44.500 C 11.070 44.683,11.099 44.833,11.182 44.833 C 11.265 44.833,11.333 44.946,11.333 45.083 C 11.333 45.221,11.408 45.333,11.500 45.333 C 11.592 45.333,11.667 45.488,11.667 45.677 C 11.667 45.865,11.742 45.973,11.833 45.917 C 11.925 45.860,12.009 45.931,12.021 46.073 C 12.032 46.216,12.060 46.408,12.083 46.500 C 12.106 46.592,12.134 46.742,12.146 46.833 C 12.157 46.925,12.260 46.981,12.375 46.958 C 12.498 46.934,12.563 47.054,12.535 47.250 C 12.495 47.525,12.516 47.539,12.657 47.333 C 12.804 47.118,12.829 47.124,12.831 47.375 C 12.832 47.535,12.913 47.667,13.009 47.667 C 13.188 47.667,12.788 46.831,12.350 46.291 C 12.153 46.047,12.150 45.923,12.330 45.541 C 12.455 45.277,12.537 44.555,12.525 43.833 C 12.514 43.146,12.491 41.852,12.475 40.958 C 12.459 40.064,12.494 39.283,12.554 39.224 C 12.614 39.164,12.616 38.827,12.560 38.474 C 12.487 38.018,12.517 37.833,12.666 37.833 C 12.811 37.833,12.823 37.770,12.706 37.625 C 12.607 37.504,12.537 36.293,12.538 34.724 C 12.539 33.243,12.492 31.955,12.434 31.861 C 12.375 31.767,12.405 31.642,12.500 31.583 C 12.595 31.525,12.630 31.408,12.578 31.325 C 12.444 31.108,12.431 28.211,12.561 27.417 C 12.621 27.050,12.608 26.655,12.533 26.540 C 12.457 26.424,12.450 25.862,12.517 25.291 C 12.663 24.054,12.663 24.054,12.166 24.584 M16.667 24.627 C 16.667 24.727,16.549 24.927,16.405 25.071 C 16.261 25.215,16.221 25.333,16.316 25.333 C 16.527 25.333,16.898 24.676,16.764 24.541 C 16.710 24.488,16.667 24.527,16.667 24.627 M15.632 26.248 C 15.462 26.590,15.411 26.862,15.507 26.921 C 15.595 26.975,15.668 26.846,15.669 26.635 C 15.671 26.325,15.703 26.299,15.833 26.500 C 15.973 26.716,15.995 26.712,15.997 26.472 C 15.999 26.319,16.046 26.075,16.101 25.930 C 16.296 25.422,15.914 25.681,15.632 26.248 M14.667 28.383 C 14.667 28.594,14.593 28.840,14.503 28.931 C 14.413 29.021,14.319 29.373,14.294 29.714 C 14.270 30.054,14.204 30.333,14.148 30.333 C 14.092 30.333,14.056 30.502,14.069 30.708 C 14.082 30.915,14.018 31.136,13.926 31.199 C 13.835 31.263,13.818 31.373,13.889 31.444 C 14.062 31.617,14.325 31.172,14.217 30.890 C 14.170 30.767,14.202 30.667,14.288 30.667 C 14.451 30.667,14.493 30.447,14.504 29.542 C 14.508 29.196,14.593 29.000,14.739 29.000 C 14.887 29.000,14.938 28.881,14.882 28.667 C 14.831 28.473,14.877 28.333,14.990 28.333 C 15.098 28.333,15.140 28.258,15.083 28.167 C 14.900 27.869,14.667 27.990,14.667 28.383 M53.372 28.667 C 53.372 28.988,53.406 29.119,53.448 28.958 C 53.490 28.798,53.490 28.535,53.448 28.375 C 53.406 28.215,53.372 28.346,53.372 28.667 M13.725 32.875 C 13.635 33.081,13.553 33.587,13.543 34.000 C 13.532 34.412,13.563 34.600,13.613 34.417 C 13.662 34.233,13.778 33.991,13.870 33.877 C 13.962 33.764,13.992 33.552,13.936 33.407 C 13.880 33.261,13.912 32.998,14.006 32.821 C 14.101 32.645,14.113 32.500,14.033 32.500 C 13.952 32.500,13.814 32.669,13.725 32.875 M53.361 34.444 C 53.346 34.735,53.253 34.999,53.156 35.031 C 53.058 35.064,52.950 35.539,52.916 36.087 C 52.856 37.061,52.743 37.917,52.675 37.917 C 52.656 37.917,52.615 38.056,52.583 38.227 C 52.527 38.519,52.541 38.518,52.830 38.209 C 53.037 37.986,53.161 37.536,53.213 36.815 C 53.255 36.229,53.342 35.627,53.406 35.476 C 53.470 35.325,53.492 34.913,53.456 34.559 C 53.396 33.984,53.386 33.972,53.361 34.444 M13.394 37.250 C 13.395 38.167,13.423 38.520,13.456 38.036 C 13.490 37.552,13.490 36.802,13.456 36.369 C 13.421 35.937,13.394 36.333,13.394 37.250 M52.513 39.708 C 52.506 39.869,52.425 40.000,52.333 40.000 C 52.242 40.000,52.167 40.192,52.167 40.427 C 52.167 40.661,52.101 40.812,52.020 40.763 C 51.877 40.674,51.600 41.655,51.731 41.787 C 51.832 41.888,52.333 40.823,52.333 40.508 C 52.333 40.357,52.417 40.150,52.519 40.048 C 52.621 39.946,52.664 39.762,52.615 39.640 C 52.555 39.489,52.522 39.511,52.513 39.708 M50.257 44.042 C 50.084 44.340,49.872 44.630,49.786 44.688 C 49.693 44.750,49.700 44.834,49.804 44.898 C 49.898 44.957,50.024 44.854,50.083 44.669 C 50.141 44.484,50.264 44.333,50.354 44.333 C 50.445 44.333,50.473 44.258,50.416 44.165 C 50.359 44.073,50.429 43.953,50.573 43.898 C 50.716 43.843,50.833 43.731,50.833 43.649 C 50.833 43.335,50.559 43.522,50.257 44.042 M54.162 45.625 L 53.083 46.750 54.208 45.671 C 54.827 45.078,55.333 44.572,55.333 44.546 C 55.333 44.424,55.164 44.580,54.162 45.625 M12.167 45.417 C 12.167 45.554,12.092 45.667,12.000 45.667 C 11.908 45.667,11.833 45.554,11.833 45.417 C 11.833 45.279,11.908 45.167,12.000 45.167 C 12.092 45.167,12.167 45.279,12.167 45.417 M49.082 45.668 C 48.656 46.138,48.838 46.182,49.286 45.717 C 49.489 45.506,49.594 45.333,49.520 45.333 C 49.446 45.333,49.249 45.484,49.082 45.668 M13.283 48.160 C 13.392 48.577,13.667 48.782,13.667 48.447 C 13.667 48.315,13.560 48.119,13.430 48.011 C 13.235 47.849,13.209 47.876,13.283 48.160 M13.833 48.799 C 13.833 49.105,14.031 49.500,14.184 49.500 C 14.423 49.500,14.356 49.060,14.083 48.833 C 13.932 48.708,13.833 48.694,13.833 48.799 M21.002 48.815 C 20.720 48.894,20.653 48.972,20.793 49.058 C 20.907 49.129,21.165 49.070,21.370 48.926 C 21.762 48.652,21.679 48.627,21.002 48.815 " stroke="none" fill="#4c4c54" fill-rule="evenodd"></path><path id="path8" d="M26.824 17.157 C 27.111 17.339,28.833 17.363,28.833 17.185 C 28.833 17.116,28.327 17.047,27.708 17.032 C 26.972 17.013,26.666 17.057,26.824 17.157 M23.917 17.698 C 23.275 17.881,22.507 18.070,22.210 18.117 C 21.638 18.208,21.620 18.500,22.186 18.500 C 22.370 18.500,22.473 18.575,22.417 18.667 C 22.265 18.911,22.357 18.884,23.609 18.313 C 24.302 17.998,25.052 17.785,25.519 17.772 C 26.059 17.756,26.265 17.688,26.210 17.542 C 26.100 17.250,25.284 17.306,23.917 17.698 M324.417 21.000 C 324.349 21.110,326.307 21.167,330.167 21.167 C 334.026 21.167,335.985 21.110,335.917 21.000 C 335.851 20.894,333.752 20.833,330.167 20.833 C 326.582 20.833,324.482 20.894,324.417 21.000 M379.500 21.000 C 379.500 21.108,381.540 21.166,385.292 21.164 C 389.093 21.162,390.997 21.106,390.833 21.000 C 390.489 20.777,379.500 20.777,379.500 21.000 M374.740 21.597 C 374.885 21.742,374.954 21.948,374.894 22.055 C 374.816 22.193,374.848 22.191,375.002 22.049 C 375.233 21.834,374.976 21.333,374.634 21.333 C 374.547 21.333,374.595 21.452,374.740 21.597 M286.833 23.823 C 286.833 24.093,286.893 24.350,286.965 24.395 C 287.038 24.440,287.067 24.219,287.030 23.905 C 286.948 23.205,286.833 23.157,286.833 23.823 M222.102 27.583 C 222.239 28.196,222.334 28.329,222.331 27.903 C 222.329 27.727,222.252 27.471,222.159 27.333 C 222.036 27.151,222.020 27.218,222.102 27.583 M192.732 27.571 C 192.681 27.702,192.668 27.983,192.702 28.196 C 192.748 28.481,192.787 28.418,192.849 27.958 C 192.936 27.311,192.890 27.159,192.732 27.571 M36.712 30.833 C 36.712 31.246,36.745 31.415,36.784 31.208 C 36.824 31.002,36.824 30.665,36.784 30.458 C 36.745 30.252,36.712 30.421,36.712 30.833 M192.379 33.000 C 192.379 33.412,192.411 33.581,192.451 33.375 C 192.491 33.169,192.491 32.831,192.451 32.625 C 192.411 32.419,192.379 32.587,192.379 33.000 M238.440 33.368 C 238.384 33.578,238.349 34.350,238.363 35.083 L 238.388 36.417 238.497 34.750 C 238.612 32.978,238.603 32.760,238.440 33.368 M244.501 33.333 C 244.372 33.944,244.392 34.508,244.537 34.363 C 244.622 34.278,244.660 33.956,244.622 33.646 C 244.584 33.337,244.530 33.196,244.501 33.333 M364.597 34.014 C 364.535 34.486,364.517 34.906,364.558 34.947 C 364.599 34.988,364.685 34.637,364.750 34.167 C 364.815 33.697,364.832 33.277,364.789 33.234 C 364.746 33.191,364.660 33.542,364.597 34.014 M375.410 40.250 C 375.410 44.192,375.432 45.780,375.458 43.780 C 375.485 41.780,375.485 38.555,375.458 36.614 C 375.431 34.672,375.410 36.308,375.410 40.250 M213.441 34.333 C 213.573 35.052,213.668 35.188,213.664 34.653 C 213.663 34.431,213.588 34.137,213.498 34.000 C 213.382 33.824,213.366 33.923,213.441 34.333 M351.003 34.681 C 351.004 34.902,351.079 35.196,351.169 35.333 C 351.284 35.509,351.301 35.410,351.226 35.000 C 351.094 34.281,350.999 34.146,351.003 34.681 M244.333 35.397 C 244.333 35.626,244.408 35.860,244.500 35.917 C 244.594 35.975,244.667 35.838,244.667 35.603 C 244.667 35.374,244.592 35.140,244.500 35.083 C 244.406 35.025,244.333 35.162,244.333 35.397 M196.858 37.278 C 196.845 37.477,196.785 37.777,196.725 37.945 C 196.643 38.180,196.665 38.207,196.822 38.062 C 196.934 37.959,196.994 37.659,196.955 37.395 C 196.904 37.058,196.876 37.023,196.858 37.278 M213.879 40.000 C 213.879 40.412,213.911 40.581,213.951 40.375 C 213.991 40.169,213.991 39.831,213.951 39.625 C 213.911 39.419,213.879 39.587,213.879 40.000 M250.250 43.333 C 250.040 43.424,250.009 43.477,250.167 43.477 C 250.304 43.477,250.567 43.412,250.750 43.333 C 250.960 43.243,250.991 43.190,250.833 43.190 C 250.696 43.190,250.433 43.255,250.250 43.333 M300.583 43.282 C 303.433 43.401,306.462 43.406,306.391 43.292 C 306.349 43.223,304.762 43.182,302.865 43.200 C 300.968 43.218,299.942 43.255,300.583 43.282 M315.583 43.282 C 318.446 43.401,321.296 43.406,321.225 43.292 C 321.182 43.223,319.633 43.182,317.782 43.200 C 315.931 43.218,314.942 43.255,315.583 43.282 M391.499 45.633 L 391.582 48.083 391.629 45.763 C 391.655 44.487,391.618 43.384,391.547 43.313 C 391.475 43.241,391.454 44.285,391.499 45.633 M336.732 45.750 C 336.733 47.033,336.759 47.536,336.791 46.868 C 336.822 46.199,336.822 45.149,336.790 44.534 C 336.758 43.920,336.732 44.467,336.732 45.750 M209.053 46.667 C 209.053 47.262,209.084 47.506,209.121 47.208 C 209.158 46.910,209.158 46.423,209.121 46.125 C 209.084 45.827,209.053 46.071,209.053 46.667 M309.145 48.042 C 309.387 48.350,321.037 48.511,321.224 48.208 C 321.267 48.140,318.638 48.104,315.381 48.129 C 310.780 48.165,309.400 48.128,309.189 47.963 C 308.946 47.773,308.942 47.782,309.145 48.042 M294.276 48.208 C 294.318 48.277,297.007 48.333,300.250 48.333 C 303.493 48.333,306.182 48.277,306.224 48.208 C 306.267 48.140,303.578 48.083,300.250 48.083 C 296.922 48.083,294.233 48.140,294.276 48.208 M43.375 50.760 C 42.894 50.980,42.500 51.115,42.500 51.060 C 42.500 51.004,42.388 51.052,42.252 51.165 C 42.101 51.290,41.757 51.336,41.377 51.281 C 41.032 51.231,40.881 51.228,41.042 51.274 C 41.678 51.457,41.323 51.711,40.575 51.608 C 40.092 51.542,39.853 51.564,39.918 51.669 C 40.120 51.996,42.971 51.624,43.873 51.152 C 44.032 51.068,44.313 51.000,44.498 51.000 C 44.682 51.000,44.833 50.925,44.833 50.833 C 44.833 50.742,44.716 50.667,44.573 50.667 C 44.431 50.667,44.360 50.592,44.417 50.500 C 44.566 50.259,44.360 50.311,43.375 50.760 " stroke="none" fill="#1c1c1c" fill-rule="evenodd"></path></g></svg>